<svg width="160" height="20" viewBox="0 0 160 20" fill="none" xmlns="http://www.w3.org/2000/svg">
<g clip-path="url(#clip0_1_189)">
<path d="M121.479 7.34648C119.252 7.34648 117.614 8.7295 117.614 11.0747C117.614 13.4199 119.252 14.8029 121.479 14.8029C123.691 14.8029 125.329 13.4199 125.329 11.0747C125.329 8.7295 123.691 7.34648 121.479 7.34648ZM121.479 13.2033C121.2 13.2261 120.92 13.1865 120.658 13.0873C120.397 12.988 120.159 12.8314 119.963 12.6285C119.767 12.4257 119.617 12.1815 119.523 11.913C119.429 11.6446 119.394 11.3584 119.42 11.0747C119.415 10.7958 119.465 10.5187 119.566 10.2596C119.668 10.0005 119.818 9.76463 120.01 9.56565C120.202 9.36668 120.43 9.20864 120.682 9.10075C120.934 8.99287 121.205 8.93731 121.478 8.93731C121.752 8.93731 122.022 8.99287 122.274 9.10075C122.527 9.20864 122.755 9.36668 122.947 9.56565C123.138 9.76463 123.289 10.0005 123.39 10.2596C123.492 10.5187 123.541 10.7958 123.536 11.0747C123.562 11.3584 123.527 11.6445 123.434 11.9128C123.34 12.1812 123.19 12.4254 122.994 12.6283C122.798 12.8311 122.56 12.9877 122.299 13.087C122.037 13.1864 121.757 13.226 121.479 13.2033" fill="white"/>
<path d="M126.138 8.47475V14.6602H127.945V8.9891L131.142 9.08921V7.48951L127.244 7.37492C127.097 7.35205 126.945 7.36447 126.803 7.41121C126.661 7.45795 126.531 7.53773 126.424 7.64429C126.316 7.75085 126.235 7.8813 126.186 8.02538C126.136 8.16947 126.12 8.32329 126.139 8.47475" fill="white"/>
<path d="M144.293 10.6321C144.293 8.44631 142.808 7.34648 140.863 7.34648C138.889 7.34648 137.531 8.5181 137.531 10.2034H139.239C139.239 9.27481 139.911 8.86056 140.863 8.86056C141.913 8.86056 142.459 9.33211 142.487 10.2034L140.051 10.5031C138.133 10.7461 137.433 11.4909 137.433 12.6889C137.433 13.4318 137.783 14.8029 139.911 14.8029C141.773 14.8029 142.473 13.7887 142.739 12.6296H143.215L142.935 13.4436V13.6866C142.921 13.8177 142.936 13.9504 142.978 14.0748C143.021 14.1992 143.091 14.3122 143.182 14.4054C143.274 14.4987 143.385 14.5698 143.506 14.6135C143.628 14.6572 143.758 14.6725 143.887 14.6581H145.318V13.0603H144.296L144.293 10.6321ZM140.233 13.2006C139.673 13.2006 139.239 12.9438 139.239 12.3721C139.239 11.8453 139.617 11.672 140.373 11.5864L142.487 11.3151C142.487 12.4439 141.605 13.2006 140.233 13.2006Z" fill="white"/>
<path d="M150.802 7.34649C150.189 7.28846 149.575 7.44883 149.065 7.80035C148.554 8.15188 148.179 8.67287 148.002 9.27482H147.54L147.863 8.17499V4.79251H146.056V14.66H147.863V13.9745L147.54 12.8891H148.002C148.182 13.4878 148.559 14.005 149.069 14.3535C149.579 14.7021 150.191 14.8608 150.802 14.803C152.832 14.803 153.965 13.146 153.965 11.0747C153.965 9.00349 152.831 7.34649 150.802 7.34649V7.34649ZM150.032 13.2033C148.741 13.2033 147.862 12.5605 147.862 11.0747C147.862 9.58897 148.745 8.94619 150.032 8.94619C151.334 8.94619 152.162 9.58897 152.162 11.0747C152.162 12.5605 151.336 13.2033 150.032 13.2033Z" fill="white"/>
<path d="M158.054 13.0604V5.79224C158.077 5.63804 158.063 5.4805 158.015 5.33267C157.966 5.18483 157.883 5.05094 157.774 4.94205C157.665 4.83317 157.531 4.75243 157.385 4.7065C157.239 4.66057 157.085 4.65077 156.934 4.67792L154.666 4.79251V6.39221L156.248 6.29211V13.0604H154.288V14.66H159.999V13.0604H158.054Z" fill="white"/>
<path d="M134.144 9.0892H136.398V7.48885H134.144V4.9375L132.336 5.50915V13.6887C132.316 13.84 132.33 13.994 132.378 14.1388C132.425 14.2836 132.505 14.4151 132.611 14.5231C132.717 14.6311 132.846 14.7126 132.987 14.7611C133.129 14.8097 133.28 14.8241 133.429 14.8031L136.677 14.6601V13.0605L134.142 13.2034L134.144 9.0892Z" fill="white"/>
<path d="M114.051 4.9374C113.437 4.87719 112.822 5.03669 112.311 5.38853C111.8 5.74037 111.426 6.26263 111.251 6.86573H110.789L111.111 5.7659V5.08032H107.96V6.67935H109.305V14.6601H111.112V11.5647L110.789 10.4794H111.251C111.43 11.0792 111.806 11.5976 112.316 11.9465C112.827 12.2954 113.44 12.4532 114.051 12.3932C116.081 12.3932 117.214 10.7362 117.214 8.67947C117.214 6.60823 116.08 4.93674 114.051 4.93674L114.051 4.9374ZM113.281 10.7955C111.99 10.7955 111.111 10.1665 111.111 8.68144C111.111 7.18185 111.993 6.53908 113.281 6.53908C114.583 6.53908 115.411 7.19766 115.411 8.68144C115.411 10.1527 114.585 10.7955 113.281 10.7955Z" fill="white"/>
<path d="M96.555 1.92701H89V17.3444H96.555L104.107 19.2714V0L96.555 1.92701ZM94.0345 12.8476V6.42381L99.0691 7.7087V11.5627L94.0345 12.8476Z" fill="url(#paint0_linear_1_189)"/>
</g>
<path d="M7.89461 9.346C8.40594 9.44133 8.82628 9.697 9.15561 10.113C9.48494 10.529 9.64961 11.0057 9.64961 11.543C9.64961 12.0283 9.52828 12.4573 9.28561 12.83C9.05161 13.194 8.70928 13.48 8.25861 13.688C7.80794 13.896 7.27494 14 6.65961 14H2.74661V4.926H6.49061C7.10594 4.926 7.63461 5.02567 8.07661 5.225C8.52728 5.42433 8.86528 5.70167 9.09061 6.057C9.32461 6.41233 9.44161 6.81533 9.44161 7.266C9.44161 7.79467 9.29861 8.23667 9.01261 8.592C8.73528 8.94733 8.36261 9.19867 7.89461 9.346ZM4.56661 8.67H6.23061C6.66394 8.67 6.99761 8.57467 7.23161 8.384C7.46561 8.18467 7.58261 7.903 7.58261 7.539C7.58261 7.175 7.46561 6.89333 7.23161 6.694C6.99761 6.49467 6.66394 6.395 6.23061 6.395H4.56661V8.67ZM6.39961 12.518C6.84161 12.518 7.18394 12.414 7.42661 12.206C7.67794 11.998 7.80361 11.7033 7.80361 11.322C7.80361 10.932 7.67361 10.6287 7.41361 10.412C7.15361 10.1867 6.80261 10.074 6.36061 10.074H4.56661V12.518H6.39961ZM10.6321 10.373C10.6321 9.645 10.7751 8.99933 11.0611 8.436C11.3558 7.87267 11.7501 7.43933 12.2441 7.136C12.7468 6.83267 13.3058 6.681 13.9211 6.681C14.4585 6.681 14.9265 6.78933 15.3251 7.006C15.7325 7.22267 16.0575 7.49567 16.3001 7.825V6.798H18.1331V14H16.3001V12.947C16.0661 13.285 15.7411 13.5667 15.3251 13.792C14.9178 14.0087 14.4455 14.117 13.9081 14.117C13.3015 14.117 12.7468 13.961 12.2441 13.649C11.7501 13.337 11.3558 12.8993 11.0611 12.336C10.7751 11.764 10.6321 11.1097 10.6321 10.373ZM16.3001 10.399C16.3001 9.957 16.2135 9.58 16.0401 9.268C15.8668 8.94733 15.6328 8.70467 15.3381 8.54C15.0435 8.36667 14.7271 8.28 14.3891 8.28C14.0511 8.28 13.7391 8.36233 13.4531 8.527C13.1671 8.69167 12.9331 8.93433 12.7511 9.255C12.5778 9.567 12.4911 9.93967 12.4911 10.373C12.4911 10.8063 12.5778 11.1877 12.7511 11.517C12.9331 11.8377 13.1671 12.0847 13.4531 12.258C13.7478 12.4313 14.0598 12.518 14.3891 12.518C14.7271 12.518 15.0435 12.4357 15.3381 12.271C15.6328 12.0977 15.8668 11.855 16.0401 11.543C16.2135 11.2223 16.3001 10.841 16.3001 10.399ZM19.4427 10.399C19.4427 9.65367 19.5943 9.00367 19.8977 8.449C20.201 7.88567 20.6213 7.45233 21.1587 7.149C21.696 6.837 22.3113 6.681 23.0047 6.681C23.8973 6.681 24.634 6.90633 25.2147 7.357C25.804 7.799 26.1983 8.423 26.3977 9.229H24.4347C24.3307 8.917 24.153 8.67433 23.9017 8.501C23.659 8.319 23.3557 8.228 22.9917 8.228C22.4717 8.228 22.06 8.41867 21.7567 8.8C21.4533 9.17267 21.3017 9.70567 21.3017 10.399C21.3017 11.0837 21.4533 11.6167 21.7567 11.998C22.06 12.3707 22.4717 12.557 22.9917 12.557C23.7283 12.557 24.2093 12.2277 24.4347 11.569H26.3977C26.1983 12.349 25.804 12.9687 25.2147 13.428C24.6253 13.8873 23.8887 14.117 23.0047 14.117C22.3113 14.117 21.696 13.9653 21.1587 13.662C20.6213 13.35 20.201 12.9167 19.8977 12.362C19.5943 11.7987 19.4427 11.1443 19.4427 10.399ZM31.995 14L29.551 10.932V14H27.731V4.38H29.551V9.853L31.969 6.798H34.335L31.163 10.412L34.361 14H31.995ZM42.1218 6.798V14H40.2888V13.09C40.0548 13.402 39.7471 13.649 39.3658 13.831C38.9931 14.0043 38.5858 14.091 38.1438 14.091C37.5804 14.091 37.0821 13.974 36.6488 13.74C36.2154 13.4973 35.8731 13.1463 35.6218 12.687C35.3791 12.219 35.2578 11.6643 35.2578 11.023V6.798H37.0778V10.763C37.0778 11.335 37.2208 11.777 37.5068 12.089C37.7928 12.3923 38.1828 12.544 38.6768 12.544C39.1794 12.544 39.5738 12.3923 39.8598 12.089C40.1458 11.777 40.2888 11.335 40.2888 10.763V6.798H42.1218ZM45.7375 7.838C45.9715 7.50867 46.2922 7.23567 46.6995 7.019C47.1155 6.79367 47.5878 6.681 48.1165 6.681C48.7318 6.681 49.2865 6.83267 49.7805 7.136C50.2832 7.43933 50.6775 7.87267 50.9635 8.436C51.2582 8.99067 51.4055 9.63633 51.4055 10.373C51.4055 11.1097 51.2582 11.764 50.9635 12.336C50.6775 12.8993 50.2832 13.337 49.7805 13.649C49.2865 13.961 48.7318 14.117 48.1165 14.117C47.5878 14.117 47.1198 14.0087 46.7125 13.792C46.3138 13.5753 45.9888 13.3023 45.7375 12.973V17.432H43.9175V6.798H45.7375V7.838ZM49.5465 10.373C49.5465 9.93967 49.4555 9.567 49.2735 9.255C49.1002 8.93433 48.8662 8.69167 48.5715 8.527C48.2855 8.36233 47.9735 8.28 47.6355 8.28C47.3062 8.28 46.9942 8.36667 46.6995 8.54C46.4135 8.70467 46.1795 8.94733 45.9975 9.268C45.8242 9.58867 45.7375 9.96567 45.7375 10.399C45.7375 10.8323 45.8242 11.2093 45.9975 11.53C46.1795 11.8507 46.4135 12.0977 46.6995 12.271C46.9942 12.4357 47.3062 12.518 47.6355 12.518C47.9735 12.518 48.2855 12.4313 48.5715 12.258C48.8662 12.0847 49.1002 11.8377 49.2735 11.517C49.4555 11.1963 49.5465 10.815 49.5465 10.373ZM65.8097 6.798L63.7037 14H61.7407L60.4277 8.969L59.1147 14H57.1387L55.0197 6.798H56.8657L58.1397 12.284L59.5177 6.798H61.4417L62.7937 12.271L64.0677 6.798H65.8097ZM67.7175 5.94C67.3968 5.94 67.1281 5.84033 66.9115 5.641C66.7035 5.433 66.5995 5.17733 66.5995 4.874C66.5995 4.57067 66.7035 4.31933 66.9115 4.12C67.1281 3.912 67.3968 3.808 67.7175 3.808C68.0381 3.808 68.3025 3.912 68.5105 4.12C68.7271 4.31933 68.8355 4.57067 68.8355 4.874C68.8355 5.17733 68.7271 5.433 68.5105 5.641C68.3025 5.84033 68.0381 5.94 67.7175 5.94ZM68.6145 6.798V14H66.7945V6.798H68.6145ZM72.5316 8.293V11.777C72.5316 12.0197 72.588 12.1973 72.7006 12.31C72.822 12.414 73.0213 12.466 73.2986 12.466H74.1436V14H72.9996C71.4656 14 70.6986 13.2547 70.6986 11.764V8.293H69.8406V6.798H70.6986V5.017H72.5316V6.798H74.1436V8.293H72.5316ZM79.5087 6.694C80.0547 6.694 80.54 6.81533 80.9647 7.058C81.3893 7.292 81.7187 7.643 81.9527 8.111C82.1953 8.57033 82.3167 9.125 82.3167 9.775V14H80.4967V10.022C80.4967 9.45 80.3537 9.01233 80.0677 8.709C79.7817 8.397 79.3917 8.241 78.8977 8.241C78.395 8.241 77.9963 8.397 77.7017 8.709C77.4157 9.01233 77.2727 9.45 77.2727 10.022V14H75.4527V4.38H77.2727V7.695C77.5067 7.383 77.8187 7.14033 78.2087 6.967C78.5987 6.785 79.032 6.694 79.5087 6.694Z" fill="white"/>
<defs>
<linearGradient id="paint0_linear_1_189" x1="104.107" y1="-5.74333e-07" x2="85.7573" y2="13.2334" gradientUnits="userSpaceOnUse">
<stop stop-color="#8600FA"/>
<stop offset="0.099" stop-color="#8A00F9"/>
<stop offset="0.522" stop-color="#C602E5"/>
<stop offset="0.911" stop-color="#F02376"/>
<stop offset="1" stop-color="#F4266B"/>
</linearGradient>
<clipPath id="clip0_1_189">
<rect width="71" height="19.2714" fill="white" transform="translate(89)"/>
</clipPath>
</defs>
</svg>
