<svg width="166" height="20" viewBox="0 0 166 20" fill="none" xmlns="http://www.w3.org/2000/svg">
<g clip-path="url(#clip0_8_420)">
<path d="M127.479 7.34644C125.252 7.34644 123.614 8.72946 123.614 11.0747C123.614 13.4199 125.252 14.8029 127.479 14.8029C129.691 14.8029 131.329 13.4199 131.329 11.0747C131.329 8.72946 129.691 7.34644 127.479 7.34644ZM127.479 13.2032C127.2 13.2261 126.92 13.1865 126.659 13.0872C126.397 12.9879 126.159 12.8314 125.963 12.6285C125.767 12.4256 125.617 12.1814 125.523 11.913C125.429 11.6445 125.394 11.3584 125.42 11.0747C125.415 10.7958 125.465 10.5187 125.566 10.2596C125.668 10.0005 125.818 9.76458 126.01 9.56561C126.202 9.36663 126.43 9.20859 126.682 9.10071C126.934 8.99282 127.205 8.93726 127.478 8.93726C127.752 8.93726 128.022 8.99282 128.274 9.10071C128.527 9.20859 128.755 9.36663 128.947 9.56561C129.138 9.76458 129.289 10.0005 129.39 10.2596C129.492 10.5187 129.541 10.7958 129.536 11.0747C129.563 11.3583 129.527 11.6444 129.434 11.9128C129.34 12.1812 129.19 12.4254 128.994 12.6282C128.798 12.8311 128.56 12.9877 128.299 13.087C128.037 13.1863 127.757 13.226 127.479 13.2032Z" fill="black"/>
<path d="M132.138 8.47475V14.6602H133.945V8.9891L137.142 9.08921V7.48951L133.244 7.37492C133.097 7.35205 132.945 7.36447 132.803 7.41121C132.661 7.45795 132.531 7.53773 132.424 7.64429C132.316 7.75085 132.235 7.8813 132.186 8.02538C132.136 8.16947 132.12 8.32329 132.139 8.47475" fill="black"/>
<path d="M150.293 10.6321C150.293 8.44627 148.808 7.34644 146.863 7.34644C144.889 7.34644 143.531 8.51805 143.531 10.2034H145.239C145.239 9.27476 145.911 8.86052 146.863 8.86052C147.913 8.86052 148.459 9.33206 148.487 10.2034L146.051 10.503C144.133 10.746 143.433 11.4909 143.433 12.6889C143.433 13.4317 143.783 14.8029 145.911 14.8029C147.773 14.8029 148.473 13.7887 148.739 12.6296H149.215L148.935 13.4436V13.6866C148.921 13.8177 148.936 13.9503 148.978 14.0747C149.021 14.1991 149.091 14.3121 149.182 14.4054C149.274 14.4986 149.385 14.5697 149.506 14.6135C149.628 14.6572 149.758 14.6724 149.887 14.658H151.318V13.0603H150.296L150.293 10.6321ZM146.233 13.2006C145.673 13.2006 145.239 12.9437 145.239 12.3721C145.239 11.8452 145.617 11.672 146.373 11.5864L148.487 11.3151C148.487 12.4439 147.605 13.2006 146.233 13.2006Z" fill="black"/>
<path d="M156.802 7.34646C156.189 7.28843 155.575 7.4488 155.065 7.80032C154.554 8.15185 154.179 8.67284 154.002 9.27479H153.54L153.863 8.17496V4.79248H152.056V14.66H153.863V13.9744L153.54 12.8891H154.002C154.182 13.4878 154.559 14.0049 155.069 14.3535C155.579 14.7021 156.191 14.8608 156.802 14.8029C158.832 14.8029 159.965 13.1459 159.965 11.0747C159.965 9.00346 158.831 7.34646 156.802 7.34646ZM156.032 13.2032C154.741 13.2032 153.862 12.5605 153.862 11.0747C153.862 9.58893 154.745 8.94616 156.032 8.94616C157.334 8.94616 158.162 9.58893 158.162 11.0747C158.162 12.5605 157.336 13.2032 156.032 13.2032Z" fill="black"/>
<path d="M164.054 13.0603V5.79217C164.077 5.63796 164.063 5.48043 164.015 5.33259C163.966 5.18476 163.883 5.05086 163.774 4.94198C163.665 4.83309 163.531 4.75235 163.385 4.70642C163.239 4.66049 163.085 4.6507 162.934 4.67784L160.666 4.79244V6.39213L162.248 6.29203V13.0603H160.288V14.66H165.999V13.0603H164.054Z" fill="black"/>
<path d="M140.144 9.0892H142.398V7.48885H140.144V4.9375L138.336 5.50915V13.6887C138.316 13.84 138.33 13.9941 138.378 14.1388C138.425 14.2836 138.505 14.4151 138.611 14.5231C138.717 14.6311 138.846 14.7126 138.987 14.7611C139.129 14.8097 139.28 14.8241 139.429 14.8031L142.677 14.6601V13.0605L140.142 13.2034L140.144 9.0892Z" fill="black"/>
<path d="M120.051 4.9375C119.437 4.87729 118.822 5.03678 118.311 5.38862C117.8 5.74046 117.426 6.26273 117.251 6.86582H116.789L117.111 5.76599V5.08041H113.96V6.67944H115.305V14.6601H117.112V11.5648L116.789 10.4795H117.251C117.43 11.0793 117.806 11.5977 118.316 11.9466C118.827 12.2955 119.44 12.4533 120.051 12.3933C122.081 12.3933 123.214 10.7363 123.214 8.67956C123.214 6.60832 122.08 4.93684 120.051 4.93684L120.051 4.9375ZM119.281 10.7956C117.99 10.7956 117.111 10.1666 117.111 8.68153C117.111 7.18194 117.993 6.53917 119.281 6.53917C120.583 6.53917 121.411 7.19775 121.411 8.68153C121.411 10.1528 120.585 10.7956 119.281 10.7956Z" fill="black"/>
<path d="M102.555 1.92701H95V17.3444H102.555L110.107 19.2714V0L102.555 1.92701ZM100.035 12.8476V6.42381L105.069 7.7087V11.5627L100.035 12.8476Z" fill="url(#paint0_linear_8_420)"/>
</g>
<path d="M5.45166 4.731C6.59566 4.731 7.54466 5.02567 8.29866 5.615C9.05266 6.20433 9.55099 7.006 9.79366 8.02H7.86966C7.67032 7.526 7.35832 7.136 6.93366 6.85C6.51766 6.564 6.01499 6.421 5.42566 6.421C4.94032 6.421 4.50266 6.54233 4.11266 6.785C3.72266 7.02767 3.41932 7.37433 3.20266 7.825C2.98599 8.27567 2.87766 8.80433 2.87766 9.411C2.87766 10.009 2.98599 10.5333 3.20266 10.984C3.41932 11.4347 3.72266 11.7813 4.11266 12.024C4.50266 12.2667 4.94032 12.388 5.42566 12.388C6.01499 12.388 6.51766 12.245 6.93366 11.959C7.35832 11.673 7.67032 11.283 7.86966 10.789H9.79366C9.55099 11.803 9.05266 12.6047 8.29866 13.194C7.54466 13.7833 6.59566 14.078 5.45166 14.078C4.57632 14.078 3.80066 13.883 3.12466 13.493C2.45732 13.0943 1.93732 12.5397 1.56466 11.829C1.20066 11.1183 1.01866 10.3123 1.01866 9.411C1.01866 8.501 1.20066 7.69067 1.56466 6.98C1.93732 6.26933 2.45732 5.719 3.12466 5.329C3.79199 4.93033 4.56766 4.731 5.45166 4.731ZM14.4969 6.707C15.1989 6.707 15.8272 6.85433 16.3819 7.149C16.9452 7.44367 17.3872 7.87267 17.7079 8.436C18.0286 8.99067 18.1889 9.645 18.1889 10.399C18.1889 11.153 18.0286 11.8073 17.7079 12.362C17.3872 12.9167 16.9452 13.3457 16.3819 13.649C15.8272 13.9437 15.1989 14.091 14.4969 14.091C13.7949 14.091 13.1622 13.9437 12.5989 13.649C12.0442 13.3457 11.6066 12.9167 11.2859 12.362C10.9652 11.8073 10.8049 11.153 10.8049 10.399C10.8049 9.645 10.9652 8.99067 11.2859 8.436C11.6066 7.87267 12.0442 7.44367 12.5989 7.149C13.1622 6.85433 13.7949 6.707 14.4969 6.707ZM14.4969 8.293C13.9856 8.293 13.5522 8.475 13.1969 8.839C12.8416 9.19433 12.6639 9.71433 12.6639 10.399C12.6639 11.0837 12.8416 11.608 13.1969 11.972C13.5522 12.3273 13.9856 12.505 14.4969 12.505C15.0082 12.505 15.4416 12.3273 15.7969 11.972C16.1522 11.608 16.3299 11.0837 16.3299 10.399C16.3299 9.71433 16.1522 9.19433 15.7969 8.839C15.4416 8.475 15.0082 8.293 14.4969 8.293ZM23.7743 6.694C24.6063 6.694 25.2693 6.967 25.7633 7.513C26.2573 8.059 26.5043 8.826 26.5043 9.814V14H24.6843V10.022C24.6843 9.45 24.537 9.008 24.2423 8.696C23.9477 8.37533 23.5447 8.215 23.0333 8.215C22.5133 8.215 22.0973 8.384 21.7853 8.722C21.4733 9.06 21.3173 9.54533 21.3173 10.178V14H19.4843V6.798H21.3173V8.241C21.508 7.75567 21.82 7.37867 22.2533 7.11C22.6953 6.83267 23.2023 6.694 23.7743 6.694ZM32.4072 6.694C33.2392 6.694 33.9022 6.967 34.3962 7.513C34.8902 8.059 35.1372 8.826 35.1372 9.814V14H33.3172V10.022C33.3172 9.45 33.1698 9.008 32.8752 8.696C32.5805 8.37533 32.1775 8.215 31.6662 8.215C31.1462 8.215 30.7302 8.384 30.4182 8.722C30.1062 9.06 29.9502 9.54533 29.9502 10.178V14H28.1172V6.798H29.9502V8.241C30.1408 7.75567 30.4528 7.37867 30.8862 7.11C31.3282 6.83267 31.8352 6.694 32.4072 6.694ZM43.523 10.126C43.523 10.308 43.5013 10.516 43.458 10.75H38.18C38.206 11.3913 38.3793 11.8637 38.7 12.167C39.0206 12.4703 39.4193 12.622 39.896 12.622C40.3206 12.622 40.6716 12.518 40.949 12.31C41.235 12.102 41.417 11.8203 41.495 11.465H43.432C43.3366 11.9677 43.133 12.4183 42.821 12.817C42.509 13.2157 42.106 13.5277 41.612 13.753C41.1266 13.9783 40.585 14.091 39.987 14.091C39.285 14.091 38.661 13.9437 38.115 13.649C37.569 13.3457 37.1443 12.9167 36.841 12.362C36.5376 11.8073 36.386 11.153 36.386 10.399C36.386 9.645 36.5376 8.99067 36.841 8.436C37.1443 7.87267 37.569 7.44367 38.115 7.149C38.661 6.85433 39.285 6.707 39.987 6.707C40.6976 6.707 41.3173 6.85433 41.846 7.149C42.3833 7.44367 42.795 7.851 43.081 8.371C43.3756 8.88233 43.523 9.46733 43.523 10.126ZM41.677 9.944C41.703 9.35467 41.547 8.90833 41.209 8.605C40.8796 8.30167 40.4723 8.15 39.987 8.15C39.493 8.15 39.077 8.30167 38.739 8.605C38.401 8.90833 38.2146 9.35467 38.18 9.944H41.677ZM48.0612 6.707C48.9885 6.707 49.7599 6.95833 50.3752 7.461C50.9992 7.96367 51.3892 8.64833 51.5452 9.515H49.6082C49.5302 9.13367 49.3525 8.83467 49.0752 8.618C48.7979 8.39267 48.4469 8.28 48.0222 8.28C47.5369 8.28 47.1295 8.462 46.8002 8.826C46.4795 9.18133 46.3192 9.70567 46.3192 10.399C46.3192 11.0923 46.4795 11.621 46.8002 11.985C47.1295 12.3403 47.5369 12.518 48.0222 12.518C48.4469 12.518 48.7979 12.4097 49.0752 12.193C49.3525 11.9677 49.5302 11.6643 49.6082 11.283H51.5452C51.3892 12.1497 50.9992 12.8343 50.3752 13.337C49.7599 13.8397 48.9885 14.091 48.0612 14.091C47.3592 14.091 46.7352 13.9437 46.1892 13.649C45.6432 13.3457 45.2185 12.9167 44.9152 12.362C44.6119 11.8073 44.4602 11.153 44.4602 10.399C44.4602 9.645 44.6119 8.99067 44.9152 8.436C45.2185 7.87267 45.6432 7.44367 46.1892 7.149C46.7352 6.85433 47.3592 6.707 48.0612 6.707ZM56.6956 12.427V14H55.7336C54.9276 14 54.308 13.805 53.8746 13.415C53.45 13.025 53.2376 12.375 53.2376 11.465V8.345H52.2366V6.798H53.2376V5.017H55.0706V6.798H56.6826V8.345H55.0706V11.491C55.0706 11.8377 55.14 12.0803 55.2786 12.219C55.4173 12.3577 55.6513 12.427 55.9806 12.427H56.6956ZM71.1547 6.798L69.2177 14H67.1897L65.6427 8.761L64.0567 14H62.0287L60.1047 6.798H61.9377L63.1077 12.362L64.7067 6.798H66.6437L68.2557 12.362L69.4387 6.798H71.1547ZM71.8603 4.731C71.8603 4.43633 71.9643 4.198 72.1723 4.016C72.3803 3.82533 72.6533 3.73 72.9913 3.73C73.3293 3.73 73.6023 3.82533 73.8103 4.016C74.0183 4.198 74.1223 4.43633 74.1223 4.731C74.1223 5.017 74.0183 5.25533 73.8103 5.446C73.6023 5.628 73.3293 5.719 72.9913 5.719C72.6533 5.719 72.3803 5.628 72.1723 5.446C71.9643 5.25533 71.8603 5.017 71.8603 4.731ZM73.9013 6.798V14H72.0683V6.798H73.9013ZM79.4075 12.427V14H78.4455C77.6395 14 77.0199 13.805 76.5865 13.415C76.1619 13.025 75.9495 12.375 75.9495 11.465V8.345H74.9485V6.798H75.9495V5.017H77.7825V6.798H79.3945V8.345H77.7825V11.491C77.7825 11.8377 77.8519 12.0803 77.9905 12.219C78.1292 12.3577 78.3632 12.427 78.6925 12.427H79.4075ZM85.0165 6.694C85.8485 6.694 86.5115 6.967 87.0055 7.513C87.4995 8.059 87.7465 8.826 87.7465 9.814V14H85.9265V10.022C85.9265 9.45 85.7792 9.008 85.4845 8.696C85.1899 8.37533 84.7869 8.215 84.2755 8.215C83.7555 8.215 83.3395 8.384 83.0275 8.722C82.7155 9.06 82.5595 9.54533 82.5595 10.178V14H80.7265V4.38H82.5595V8.241C82.7502 7.75567 83.0622 7.37867 83.4955 7.11C83.9375 6.83267 84.4445 6.694 85.0165 6.694Z" fill="black"/>
<defs>
<linearGradient id="paint0_linear_8_420" x1="110.107" y1="-5.74333e-07" x2="91.7573" y2="13.2334" gradientUnits="userSpaceOnUse">
<stop stop-color="#8600FA"/>
<stop offset="0.099" stop-color="#8A00F9"/>
<stop offset="0.522" stop-color="#C602E5"/>
<stop offset="0.911" stop-color="#F02376"/>
<stop offset="1" stop-color="#F4266B"/>
</linearGradient>
<clipPath id="clip0_8_420">
<rect width="71" height="19.2714" fill="white" transform="translate(95)"/>
</clipPath>
</defs>
</svg>
