<svg width="102" height="28" viewBox="0 0 102 28" fill="none" xmlns="http://www.w3.org/2000/svg">
<g clip-path="url(#clip0_371_1106)">
<path d="M46.6595 10.3945C43.4613 10.3945 41.1079 12.3514 41.1079 15.6696C41.1079 18.9879 43.4613 20.9448 46.6595 20.9448C49.8373 20.9448 52.1907 18.9879 52.1907 15.6696C52.1907 12.3514 49.8373 10.3945 46.6595 10.3945ZM46.6595 18.6813C46.2595 18.7137 45.8574 18.6577 45.4812 18.5172C45.1051 18.3767 44.7642 18.1552 44.4824 17.8682C44.2005 17.5811 43.9847 17.2356 43.8499 16.8558C43.7152 16.476 43.6648 16.0711 43.7024 15.6696C43.6955 15.275 43.7668 14.883 43.9123 14.5164C44.0577 14.1498 44.2744 13.816 44.5496 13.5345C44.8249 13.2529 45.1531 13.0293 45.5153 12.8767C45.8775 12.724 46.2663 12.6454 46.659 12.6454C47.0518 12.6454 47.4406 12.724 47.8027 12.8767C48.1649 13.0293 48.4932 13.2529 48.7684 13.5345C49.0437 13.816 49.2603 14.1498 49.4058 14.5164C49.5513 14.883 49.6226 15.275 49.6156 15.6696C49.6532 16.071 49.6029 16.4758 49.4682 16.8555C49.3335 17.2353 49.1177 17.5808 48.836 17.8678C48.5543 18.1548 48.2134 18.3764 47.8374 18.5169C47.4614 18.6574 47.0594 18.7136 46.6595 18.6813" fill="black" fill-opacity="0.2"/>
<path d="M53.3525 11.9909V20.7427H55.9489V12.7186L60.5416 12.8603V10.5969L54.9428 10.4347C54.7303 10.4024 54.5132 10.4199 54.3086 10.4861C54.1039 10.5522 53.9174 10.6651 53.7635 10.8159C53.6096 10.9666 53.4925 11.1512 53.4216 11.3551C53.3506 11.5589 53.3276 11.7766 53.3543 11.9909" fill="black" fill-opacity="0.2"/>
<path d="M79.4349 15.0435C79.4349 11.9507 77.3022 10.3945 74.5074 10.3945C71.6718 10.3945 69.7208 12.0523 69.7208 14.4368H72.1743C72.1743 13.1229 73.1396 12.5368 74.5074 12.5368C76.016 12.5368 76.8005 13.204 76.8404 14.4368L73.3409 14.8608C70.585 15.2047 69.5798 16.2586 69.5798 17.9536C69.5798 19.0047 70.0824 20.9448 73.1396 20.9448C75.8148 20.9448 76.82 19.5097 77.202 17.8697H77.8863L77.4839 19.0214V19.3653C77.4636 19.5508 77.4851 19.7384 77.5466 19.9145C77.6082 20.0905 77.7083 20.2504 77.8396 20.3823C77.9709 20.5142 78.13 20.6148 78.3052 20.6767C78.4803 20.7386 78.6671 20.7601 78.8516 20.7398H80.9074V18.4791H79.4395L79.4349 15.0435ZM73.6023 18.6776C72.7975 18.6776 72.1743 18.3142 72.1743 17.5054C72.1743 16.7599 72.7168 16.5148 73.8036 16.3937L76.8404 16.0098C76.8404 17.6069 75.5728 18.6776 73.6023 18.6776Z" fill="black" fill-opacity="0.2"/>
<path d="M88.7863 10.3944C87.9054 10.3123 87.0234 10.5392 86.2901 11.0366C85.5568 11.534 85.0175 12.2711 84.7638 13.1228H84.0999L84.5635 11.5667V6.78076H81.9672V20.7424H84.5635V19.7724L84.0999 18.2367H84.7638C85.0226 19.0838 85.5638 19.8156 86.2964 20.3087C87.029 20.8019 87.9083 21.0265 88.7863 20.9446C91.7026 20.9446 93.33 18.6001 93.33 15.6695C93.33 12.7389 91.7008 10.3944 88.7863 10.3944V10.3944ZM87.6801 18.6812C85.8256 18.6812 84.5626 17.7717 84.5626 15.6695C84.5626 13.5673 85.8302 12.6578 87.6801 12.6578C89.5504 12.6578 90.7401 13.5673 90.7401 15.6695C90.7401 17.7717 89.5532 18.6812 87.6801 18.6812Z" fill="black" fill-opacity="0.2"/>
<path d="M99.2042 18.4793V8.19555C99.237 7.97736 99.2176 7.75447 99.1477 7.54529C99.0778 7.33612 98.9594 7.14667 98.8022 6.99261C98.645 6.83855 98.4535 6.7243 98.2437 6.65932C98.0338 6.59433 97.8116 6.58047 97.5954 6.61888L94.337 6.78102V9.04445L96.6097 8.90281V18.4793H93.7936V20.7427H101.999V18.4793H99.2042Z" fill="black" fill-opacity="0.2"/>
<path d="M64.8544 12.8606H68.0925V10.5963H64.8544V6.98633L62.2581 7.79516V19.3685C62.2285 19.5825 62.2487 19.8005 62.3171 20.0054C62.3855 20.2102 62.5002 20.3963 62.6523 20.5491C62.8043 20.7019 62.9895 20.8171 63.1933 20.8859C63.3972 20.9546 63.6141 20.9749 63.827 20.9452L68.4931 20.743V18.4796L64.8526 18.6818L64.8544 12.8606Z" fill="black" fill-opacity="0.2"/>
<path d="M35.9883 6.98587C35.1069 6.90068 34.2235 7.12635 33.4895 7.62418C32.7556 8.122 32.2169 8.86095 31.9658 9.71428H31.3019L31.7655 8.15812V7.18808H27.2377V9.45057H29.1701V20.7425H31.7665V16.3629L31.3028 14.8273H31.9668C32.2229 15.676 32.7635 16.4095 33.4968 16.9031C34.2301 17.3967 35.1107 17.62 35.9893 17.5352C38.9055 17.5352 40.5329 15.1907 40.5329 12.2806C40.5329 9.34993 38.9037 6.98494 35.9893 6.98494L35.9883 6.98587ZM34.8821 15.2745C33.0276 15.2745 31.7646 14.3846 31.7646 12.2833C31.7646 10.1616 33.0322 9.25209 34.8821 9.25209C36.7524 9.25209 37.9421 10.1839 37.9421 12.2833C37.9421 14.3651 36.7552 15.2745 34.8821 15.2745Z" fill="black" fill-opacity="0.2"/>
<path d="M10.8537 2.72655H0V24.5408H10.8537L21.7028 27.2673V0L10.8537 2.72655ZM7.23273 18.1782V9.08911L14.4655 10.9071V16.3602L7.23273 18.1782Z" fill="black" fill-opacity="0.2"/>
</g>
<defs>
<clipPath id="clip0_371_1106">
<rect width="102" height="27.2673" fill="white"/>
</clipPath>
</defs>
</svg>
