<svg width="102" height="28" viewBox="0 0 102 28" fill="none" xmlns="http://www.w3.org/2000/svg">
<g clip-path="url(#clip0_88_521)">
<path d="M46.6595 10.3946C43.4613 10.3946 41.1079 12.3515 41.1079 15.6697C41.1079 18.988 43.4613 20.9448 46.6595 20.9448C49.8373 20.9448 52.1907 18.988 52.1907 15.6697C52.1907 12.3515 49.8373 10.3946 46.6595 10.3946ZM46.6595 18.6814C46.2595 18.7138 45.8574 18.6578 45.4812 18.5173C45.1051 18.3768 44.7642 18.1553 44.4824 17.8682C44.2005 17.5812 43.9847 17.2357 43.8499 16.8558C43.7152 16.476 43.6648 16.0712 43.7024 15.6697C43.6955 15.2751 43.7668 14.8831 43.9123 14.5165C44.0577 14.1499 44.2744 13.8161 44.5496 13.5345C44.8249 13.253 45.1531 13.0294 45.5153 12.8767C45.8775 12.7241 46.2663 12.6455 46.659 12.6455C47.0518 12.6455 47.4406 12.7241 47.8027 12.8767C48.1649 13.0294 48.4932 13.253 48.7684 13.5345C49.0437 13.8161 49.2603 14.1499 49.4058 14.5165C49.5513 14.8831 49.6226 15.2751 49.6156 15.6697C49.6532 16.0711 49.6029 16.4759 49.4682 16.8556C49.3335 17.2353 49.1177 17.5809 48.836 17.8679C48.5543 18.1549 48.2134 18.3764 47.8374 18.517C47.4614 18.6575 47.0594 18.7136 46.6595 18.6814Z" fill="black"/>
<path d="M53.3525 11.991V20.7428H55.9489V12.7188L60.5416 12.8604V10.597L54.9428 10.4348C54.7303 10.4025 54.5132 10.4201 54.3086 10.4862C54.1039 10.5523 53.9174 10.6652 53.7635 10.816C53.6096 10.9668 53.4925 11.1513 53.4216 11.3552C53.3506 11.5591 53.3276 11.7767 53.3543 11.991" fill="black"/>
<path d="M79.4349 15.0435C79.4349 11.9508 77.3022 10.3946 74.5074 10.3946C71.6718 10.3946 69.7208 12.0523 69.7208 14.4369H72.1743C72.1743 13.123 73.1396 12.5369 74.5074 12.5369C76.016 12.5369 76.8005 13.2041 76.8404 14.4369L73.3409 14.8609C70.585 15.2047 69.5798 16.2586 69.5798 17.9536C69.5798 19.0048 70.0824 20.9448 73.1396 20.9448C75.8148 20.9448 76.82 19.5098 77.202 17.8698H77.8863L77.4839 19.0215V19.3654C77.4636 19.5508 77.4851 19.7385 77.5466 19.9145C77.6082 20.0906 77.7083 20.2504 77.8396 20.3824C77.9709 20.5143 78.13 20.6149 78.3052 20.6768C78.4803 20.7387 78.6671 20.7602 78.8516 20.7398H80.9074V18.4792H79.4395L79.4349 15.0435ZM73.6023 18.6777C72.7975 18.6777 72.1743 18.3143 72.1743 17.5054C72.1743 16.76 72.7168 16.5149 73.8036 16.3938L76.8404 16.0098C76.8404 17.607 75.5728 18.6777 73.6023 18.6777Z" fill="black"/>
<path d="M88.7863 10.3946C87.9054 10.3125 87.0234 10.5394 86.2901 11.0368C85.5568 11.5342 85.0175 12.2713 84.7638 13.123H84.0999L84.5635 11.5669V6.78096H81.9672V20.7426H84.5635V19.7726L84.0999 18.2369H84.7638C85.0226 19.084 85.5638 19.8158 86.2964 20.3089C87.029 20.8021 87.9083 21.0267 88.7863 20.9448C91.7026 20.9448 93.33 18.6003 93.33 15.6697C93.33 12.7391 91.7008 10.3946 88.7863 10.3946ZM87.6801 18.6814C85.8256 18.6814 84.5626 17.7719 84.5626 15.6697C84.5626 13.5675 85.8302 12.658 87.6801 12.658C89.5504 12.658 90.7401 13.5675 90.7401 15.6697C90.7401 17.7719 89.5532 18.6814 87.6801 18.6814Z" fill="black"/>
<path d="M99.2042 18.4792V8.19549C99.237 7.97731 99.2176 7.75441 99.1477 7.54524C99.0778 7.33606 98.9594 7.14661 98.8022 6.99255C98.645 6.83849 98.4535 6.72425 98.2437 6.65926C98.0338 6.59428 97.8116 6.58042 97.5954 6.61883L94.337 6.78097V9.04439L96.6097 8.90276V18.4792H93.7936V20.7426H101.999V18.4792H99.2042Z" fill="black"/>
<path d="M64.8544 12.8604H68.0925V10.596H64.8544V6.98611L62.2581 7.79495V19.3683C62.2285 19.5823 62.2487 19.8003 62.3171 20.0051C62.3855 20.21 62.5002 20.3961 62.6523 20.5489C62.8043 20.7017 62.9895 20.8169 63.1933 20.8857C63.3972 20.9544 63.6141 20.9747 63.827 20.945L68.4931 20.7428V18.4794L64.8526 18.6816L64.8544 12.8604Z" fill="black"/>
<path d="M35.9883 6.98598C35.1069 6.90079 34.2235 7.12646 33.4895 7.62428C32.7556 8.12211 32.2169 8.86106 31.9658 9.71439H31.3019L31.7655 8.15823V7.18819H27.2377V9.45068H29.1701V20.7426H31.7665V16.363L31.3028 14.8274H31.9668C32.2229 15.6761 32.7635 16.4096 33.4968 16.9032C34.2301 17.3968 35.1107 17.6202 35.9893 17.5353C38.9055 17.5353 40.5329 15.1908 40.5329 12.2807C40.5329 9.35004 38.9037 6.98505 35.9893 6.98505L35.9883 6.98598ZM34.8821 15.2746C33.0276 15.2746 31.7646 14.3847 31.7646 12.2835C31.7646 10.1617 33.0322 9.2522 34.8821 9.2522C36.7524 9.2522 37.9421 10.184 37.9421 12.2835C37.9421 14.3652 36.7552 15.2746 34.8821 15.2746Z" fill="black"/>
<path d="M10.8537 2.72655H0V24.5408H10.8537L21.7028 27.2673V0L10.8537 2.72655ZM7.23273 18.1782V9.08911L14.4655 10.9071V16.3602L7.23273 18.1782Z" fill="url(#paint0_linear_88_521)"/>
</g>
<defs>
<linearGradient id="paint0_linear_88_521" x1="21.7028" y1="-8.1263e-07" x2="-4.38247" y2="19.101" gradientUnits="userSpaceOnUse">
<stop stop-color="#8600FA"/>
<stop offset="0.099" stop-color="#8A00F9"/>
<stop offset="0.522" stop-color="#C602E5"/>
<stop offset="0.911" stop-color="#F02376"/>
<stop offset="1" stop-color="#F4266B"/>
</linearGradient>
<clipPath id="clip0_88_521">
<rect width="102" height="27.2673" fill="white"/>
</clipPath>
</defs>
</svg>
