<svg width="28" height="28" viewBox="0 0 28 28" fill="none" xmlns="http://www.w3.org/2000/svg">
<path d="M14 0C6.286 0 0 6.286 0 14C0 21.714 6.286 28 14 28C21.714 28 28 21.714 28 14C28 6.286 21.714 0 14 0ZM20.692 10.78L12.754 18.718C12.558 18.914 12.292 19.026 12.012 19.026C11.732 19.026 11.466 18.914 11.27 18.718L7.308 14.756C6.902 14.35 6.902 13.678 7.308 13.272C7.714 12.866 8.386 12.866 8.792 13.272L12.012 16.492L19.208 9.296C19.614 8.89 20.286 8.89 20.692 9.296C21.098 9.702 21.098 10.36 20.692 10.78Z" fill="#5BC568"/>
</svg>
