<svg width="16" height="14" viewBox="0 0 16 14" fill="none" xmlns="http://www.w3.org/2000/svg">
<g clip-path="url(#clip0_414_951)">
<path d="M7.98805 13.9977C5.89451 13.9977 3.80052 13.9933 1.70698 14.0003C1.40313 14.022 1.09935 13.9573 0.832166 13.8139C0.564985 13.6706 0.345786 13.4547 0.200937 13.1922C0.0584388 12.9396 -0.010043 12.6533 0.00304339 12.365C0.0161297 12.0766 0.110276 11.7974 0.2751 11.5582C2.37549 8.00479 4.47186 4.44923 6.56421 0.89148C6.69246 0.62513 6.89534 0.399933 7.14921 0.242107C7.40309 0.0842823 7.69752 0.000321802 7.99823 9.23201e-07C8.29894 -0.000319956 8.59356 0.083012 8.84779 0.240295C9.10201 0.397578 9.30539 0.622341 9.43423 0.888417C11.5459 4.46717 13.6569 8.04621 15.7671 11.6255C15.9169 11.8635 15.9984 12.1365 16.003 12.416C16.0077 12.6955 15.9354 12.971 15.7936 13.2136C15.6519 13.4562 15.446 13.6569 15.1976 13.7945C14.9492 13.9322 14.6675 14.0018 14.3822 13.9959C12.2511 14.0016 10.12 13.9959 7.98939 13.9959L7.98805 13.9977ZM8.86952 6.77717C8.86952 6.2405 8.86952 5.70383 8.86952 5.16717C8.87755 5.01246 8.85322 4.85778 8.79804 4.71261C8.72107 4.53015 8.58144 4.37974 8.40327 4.28739C8.2251 4.19503 8.01958 4.16652 7.82222 4.20678C7.62486 4.24704 7.44807 4.35354 7.32238 4.50789C7.19669 4.66224 7.13 4.85473 7.13384 5.05211C7.12446 6.17079 7.12937 7.28948 7.1316 8.40817C7.1291 8.53582 7.1547 8.66251 7.20666 8.7796C7.28359 8.95178 7.41617 9.09442 7.584 9.18557C7.75183 9.27671 7.9456 9.31131 8.13548 9.28404C8.33936 9.25221 8.52489 9.15006 8.6586 8.99602C8.7923 8.84198 8.86537 8.64621 8.86461 8.44404C8.87935 7.88973 8.86818 7.33454 8.86818 6.78154L8.86952 6.77717ZM8.0095 12.4253C8.13788 12.426 8.26504 12.4008 8.38304 12.3512C8.50104 12.3017 8.60736 12.2289 8.69538 12.1374C8.78339 12.0459 8.85122 11.9376 8.89463 11.8192C8.93804 11.7009 8.95611 11.5751 8.9477 11.4497C8.95745 11.3213 8.93984 11.1923 8.89599 11.0709C8.85214 10.9495 8.78301 10.8384 8.69298 10.7445C8.60295 10.6507 8.49399 10.5762 8.373 10.5258C8.25202 10.4753 8.12165 10.4501 7.99018 10.4516C7.8587 10.4531 7.72898 10.4814 7.60924 10.5346C7.48951 10.5878 7.38237 10.6648 7.29463 10.7607C7.20689 10.8566 7.14046 10.9693 7.09955 11.0917C7.05864 11.214 7.04415 11.3434 7.05699 11.4715C7.04978 11.5969 7.06931 11.7223 7.11434 11.8398C7.15937 11.9573 7.22891 12.0643 7.31853 12.1541C7.40814 12.2438 7.51587 12.3142 7.63484 12.361C7.7538 12.4077 7.8814 12.4296 8.0095 12.4253Z" fill="#F4266B" fill-opacity="0.75"/>
<path d="M8.86837 6.78042C8.86837 7.33517 8.87955 7.89036 8.8648 8.44292C8.86633 8.64555 8.79366 8.842 8.65998 8.99667C8.5263 9.15134 8.34045 9.25398 8.13612 9.28598C7.94624 9.31326 7.75248 9.27865 7.58465 9.18751C7.41682 9.09636 7.28423 8.95372 7.2073 8.78155C7.15533 8.66445 7.12973 8.53776 7.13224 8.41011C7.13224 7.29142 7.1251 6.17274 7.13448 5.05405C7.13064 4.85667 7.19733 4.66418 7.32302 4.50983C7.44871 4.35549 7.62551 4.24898 7.82286 4.20872C8.02022 4.16846 8.22574 4.19697 8.40391 4.28933C8.58208 4.38168 8.72171 4.53209 8.79868 4.71455C8.85386 4.85972 8.87819 5.0144 8.87016 5.16911C8.87016 5.70578 8.87016 6.24244 8.87016 6.77911L8.86837 6.78042Z" fill="white"/>
<path d="M8.00961 12.424C7.88141 12.4285 7.75365 12.4068 7.6345 12.3602C7.51535 12.3137 7.40743 12.2433 7.31763 12.1536C7.22782 12.0639 7.15811 11.9568 7.11295 11.8392C7.06778 11.7216 7.04815 11.5961 7.05532 11.4707C7.04248 11.3426 7.05697 11.2132 7.09788 11.0908C7.13879 10.9685 7.20522 10.8557 7.29296 10.7598C7.3807 10.6639 7.48783 10.587 7.60757 10.5337C7.7273 10.4805 7.85702 10.4523 7.9885 10.4507C8.11998 10.4492 8.25034 10.4745 8.37133 10.5249C8.49231 10.5753 8.60128 10.6498 8.69131 10.7437C8.78134 10.8375 8.85047 10.9486 8.89432 11.07C8.93817 11.1914 8.95578 11.3204 8.94603 11.4488C8.95444 11.5743 8.93637 11.7001 8.89296 11.8184C8.84955 11.9367 8.78172 12.045 8.6937 12.1365C8.60569 12.2281 8.49937 12.3009 8.38136 12.3504C8.26336 12.3999 8.1362 12.4251 8.00782 12.4244" fill="white"/>
</g>
<defs>
<clipPath id="clip0_414_951">
<rect width="16" height="14" fill="white"/>
</clipPath>
</defs>
</svg>
