<svg width="360" height="49" viewBox="0 0 360 49" fill="none" xmlns="http://www.w3.org/2000/svg">
<g filter="url(#filter0_d_5_81)">
<rect x="5" y="4" width="350" height="40" rx="5" fill="white"/>
</g>
<g clip-path="url(#clip0_5_81)">
<path d="M220.479 21.3465C218.252 21.3465 216.614 22.7295 216.614 25.0747C216.614 27.4199 218.252 28.803 220.479 28.803C222.691 28.803 224.329 27.4199 224.329 25.0747C224.329 22.7295 222.691 21.3465 220.479 21.3465ZM220.479 27.2033C220.2 27.2262 219.92 27.1866 219.658 27.0873C219.397 26.988 219.159 26.8314 218.963 26.6286C218.767 26.4257 218.617 26.1815 218.523 25.913C218.429 25.6446 218.394 25.3585 218.42 25.0747C218.415 24.7958 218.465 24.5188 218.566 24.2597C218.668 24.0006 218.818 23.7646 219.01 23.5657C219.202 23.3667 219.43 23.2087 219.682 23.1008C219.934 22.9929 220.205 22.9373 220.478 22.9373C220.752 22.9373 221.022 22.9929 221.274 23.1008C221.527 23.2087 221.755 23.3667 221.947 23.5657C222.138 23.7646 222.289 24.0006 222.39 24.2597C222.492 24.5188 222.541 24.7958 222.536 25.0747C222.562 25.3584 222.527 25.6445 222.434 25.9129C222.34 26.1812 222.19 26.4254 221.994 26.6283C221.798 26.8311 221.56 26.9877 221.299 27.0871C221.037 27.1864 220.757 27.2261 220.479 27.2033" fill="black"/>
<path d="M225.138 22.4747V28.6602H226.945V22.9891L230.142 23.0892V21.4895L226.244 21.3749C226.097 21.352 225.945 21.3645 225.803 21.4112C225.661 21.4579 225.531 21.5377 225.424 21.6443C225.316 21.7509 225.235 21.8813 225.186 22.0254C225.136 22.1695 225.12 22.3233 225.139 22.4747" fill="black"/>
<path d="M243.293 24.6322C243.293 22.4463 241.808 21.3465 239.863 21.3465C237.889 21.3465 236.531 22.5181 236.531 24.2034H238.239C238.239 23.2748 238.911 22.8606 239.863 22.8606C240.913 22.8606 241.459 23.3321 241.487 24.2034L239.051 24.5031C237.133 24.7461 236.433 25.491 236.433 26.6889C236.433 27.4318 236.783 28.803 238.911 28.803C240.773 28.803 241.473 27.7887 241.739 26.6296H242.215L241.935 27.4436V27.6867C241.921 27.8177 241.936 27.9504 241.978 28.0748C242.021 28.1992 242.091 28.3122 242.182 28.4054C242.274 28.4987 242.385 28.5698 242.506 28.6135C242.628 28.6572 242.758 28.6725 242.887 28.6581H244.318V27.0604H243.296L243.293 24.6322ZM239.233 27.2006C238.673 27.2006 238.239 26.9438 238.239 26.3721C238.239 25.8453 238.617 25.6721 239.373 25.5864L241.487 25.3151C241.487 26.4439 240.605 27.2006 239.233 27.2006Z" fill="black"/>
<path d="M249.802 21.3465C249.189 21.2885 248.575 21.4488 248.065 21.8004C247.554 22.1519 247.179 22.6729 247.002 23.2748H246.54L246.863 22.175V18.7925H245.056V28.66H246.863V27.9745L246.54 26.8891H247.002C247.182 27.4878 247.559 28.005 248.069 28.3535C248.579 28.7021 249.191 28.8608 249.802 28.803C251.832 28.803 252.965 27.146 252.965 25.0747C252.965 23.0035 251.831 21.3465 249.802 21.3465V21.3465ZM249.032 27.2033C247.741 27.2033 246.862 26.5605 246.862 25.0747C246.862 23.589 247.745 22.9462 249.032 22.9462C250.334 22.9462 251.162 23.589 251.162 25.0747C251.162 26.5605 250.336 27.2033 249.032 27.2033Z" fill="black"/>
<path d="M257.054 27.0603V19.7922C257.077 19.638 257.063 19.4805 257.015 19.3327C256.966 19.1848 256.883 19.0509 256.774 18.942C256.665 18.8332 256.531 18.7524 256.385 18.7065C256.239 18.6606 256.085 18.6508 255.934 18.6779L253.666 18.7925V20.3922L255.248 20.2921V27.0603H253.288V28.66H258.999V27.0603H257.054Z" fill="black"/>
<path d="M233.144 23.0892H235.398V21.4888H233.144V18.9375L231.336 19.5091V27.6887C231.316 27.84 231.33 27.994 231.378 28.1388C231.425 28.2836 231.505 28.4151 231.611 28.5231C231.717 28.6311 231.846 28.7126 231.987 28.7611C232.129 28.8097 232.28 28.8241 232.429 28.8031L235.677 28.6601V27.0605L233.142 27.2034L233.144 23.0892Z" fill="black"/>
<path d="M213.051 18.9374C212.437 18.8772 211.822 19.0367 211.311 19.3885C210.8 19.7404 210.426 20.2626 210.251 20.8657H209.789L210.111 19.7659V19.0803H206.96V20.6794H208.305V28.6601H210.112V25.5647L209.789 24.4794H210.251C210.43 25.0792 210.806 25.5976 211.316 25.9465C211.827 26.2954 212.44 26.4532 213.051 26.3932C215.081 26.3932 216.214 24.7362 216.214 22.6795C216.214 20.6082 215.08 18.9367 213.051 18.9367L213.051 18.9374ZM212.281 24.7955C210.99 24.7955 210.111 24.1665 210.111 22.6814C210.111 21.1819 210.993 20.5391 212.281 20.5391C213.583 20.5391 214.411 21.1977 214.411 22.6814C214.411 24.1527 213.585 24.7955 212.281 24.7955Z" fill="black"/>
<path d="M195.555 15.927H188V31.3444H195.555L203.107 33.2714V14L195.555 15.927ZM193.035 26.8476V20.4238L198.069 21.7087V25.5627L193.035 26.8476Z" fill="url(#paint0_linear_5_81)"/>
</g>
<path d="M106.395 23.346C106.906 23.4413 107.326 23.697 107.656 24.113C107.985 24.529 108.15 25.0057 108.15 25.543C108.15 26.0283 108.028 26.4573 107.786 26.83C107.552 27.194 107.209 27.48 106.759 27.688C106.308 27.896 105.775 28 105.16 28H101.247V18.926H104.991C105.606 18.926 106.135 19.0257 106.577 19.225C107.027 19.4243 107.365 19.7017 107.591 20.057C107.825 20.4123 107.942 20.8153 107.942 21.266C107.942 21.7947 107.799 22.2367 107.513 22.592C107.235 22.9473 106.863 23.1987 106.395 23.346ZM103.067 22.67H104.731C105.164 22.67 105.498 22.5747 105.732 22.384C105.966 22.1847 106.083 21.903 106.083 21.539C106.083 21.175 105.966 20.8933 105.732 20.694C105.498 20.4947 105.164 20.395 104.731 20.395H103.067V22.67ZM104.9 26.518C105.342 26.518 105.684 26.414 105.927 26.206C106.178 25.998 106.304 25.7033 106.304 25.322C106.304 24.932 106.174 24.6287 105.914 24.412C105.654 24.1867 105.303 24.074 104.861 24.074H103.067V26.518H104.9ZM109.132 24.373C109.132 23.645 109.275 22.9993 109.561 22.436C109.856 21.8727 110.25 21.4393 110.744 21.136C111.247 20.8327 111.806 20.681 112.421 20.681C112.958 20.681 113.426 20.7893 113.825 21.006C114.232 21.2227 114.557 21.4957 114.8 21.825V20.798H116.633V28H114.8V26.947C114.566 27.285 114.241 27.5667 113.825 27.792C113.418 28.0087 112.945 28.117 112.408 28.117C111.801 28.117 111.247 27.961 110.744 27.649C110.25 27.337 109.856 26.8993 109.561 26.336C109.275 25.764 109.132 25.1097 109.132 24.373ZM114.8 24.399C114.8 23.957 114.713 23.58 114.54 23.268C114.367 22.9473 114.133 22.7047 113.838 22.54C113.543 22.3667 113.227 22.28 112.889 22.28C112.551 22.28 112.239 22.3623 111.953 22.527C111.667 22.6917 111.433 22.9343 111.251 23.255C111.078 23.567 110.991 23.9397 110.991 24.373C110.991 24.8063 111.078 25.1877 111.251 25.517C111.433 25.8377 111.667 26.0847 111.953 26.258C112.248 26.4313 112.56 26.518 112.889 26.518C113.227 26.518 113.543 26.4357 113.838 26.271C114.133 26.0977 114.367 25.855 114.54 25.543C114.713 25.2223 114.8 24.841 114.8 24.399ZM117.943 24.399C117.943 23.6537 118.094 23.0037 118.398 22.449C118.701 21.8857 119.121 21.4523 119.659 21.149C120.196 20.837 120.811 20.681 121.505 20.681C122.397 20.681 123.134 20.9063 123.715 21.357C124.304 21.799 124.698 22.423 124.898 23.229H122.935C122.831 22.917 122.653 22.6743 122.402 22.501C122.159 22.319 121.856 22.228 121.492 22.228C120.972 22.228 120.56 22.4187 120.257 22.8C119.953 23.1727 119.802 23.7057 119.802 24.399C119.802 25.0837 119.953 25.6167 120.257 25.998C120.56 26.3707 120.972 26.557 121.492 26.557C122.228 26.557 122.709 26.2277 122.935 25.569H124.898C124.698 26.349 124.304 26.9687 123.715 27.428C123.125 27.8873 122.389 28.117 121.505 28.117C120.811 28.117 120.196 27.9653 119.659 27.662C119.121 27.35 118.701 26.9167 118.398 26.362C118.094 25.7987 117.943 25.1443 117.943 24.399ZM130.495 28L128.051 24.932V28H126.231V18.38H128.051V23.853L130.469 20.798H132.835L129.663 24.412L132.861 28H130.495ZM140.622 20.798V28H138.789V27.09C138.555 27.402 138.247 27.649 137.866 27.831C137.493 28.0043 137.086 28.091 136.644 28.091C136.08 28.091 135.582 27.974 135.149 27.74C134.715 27.4973 134.373 27.1463 134.122 26.687C133.879 26.219 133.758 25.6643 133.758 25.023V20.798H135.578V24.763C135.578 25.335 135.721 25.777 136.007 26.089C136.293 26.3923 136.683 26.544 137.177 26.544C137.679 26.544 138.074 26.3923 138.36 26.089C138.646 25.777 138.789 25.335 138.789 24.763V20.798H140.622ZM144.238 21.838C144.472 21.5087 144.792 21.2357 145.2 21.019C145.616 20.7937 146.088 20.681 146.617 20.681C147.232 20.681 147.787 20.8327 148.281 21.136C148.783 21.4393 149.178 21.8727 149.464 22.436C149.758 22.9907 149.906 23.6363 149.906 24.373C149.906 25.1097 149.758 25.764 149.464 26.336C149.178 26.8993 148.783 27.337 148.281 27.649C147.787 27.961 147.232 28.117 146.617 28.117C146.088 28.117 145.62 28.0087 145.213 27.792C144.814 27.5753 144.489 27.3023 144.238 26.973V31.432H142.418V20.798H144.238V21.838ZM148.047 24.373C148.047 23.9397 147.956 23.567 147.774 23.255C147.6 22.9343 147.366 22.6917 147.072 22.527C146.786 22.3623 146.474 22.28 146.136 22.28C145.806 22.28 145.494 22.3667 145.2 22.54C144.914 22.7047 144.68 22.9473 144.498 23.268C144.324 23.5887 144.238 23.9657 144.238 24.399C144.238 24.8323 144.324 25.2093 144.498 25.53C144.68 25.8507 144.914 26.0977 145.2 26.271C145.494 26.4357 145.806 26.518 146.136 26.518C146.474 26.518 146.786 26.4313 147.072 26.258C147.366 26.0847 147.6 25.8377 147.774 25.517C147.956 25.1963 148.047 24.815 148.047 24.373ZM164.31 20.798L162.204 28H160.241L158.928 22.969L157.615 28H155.639L153.52 20.798H155.366L156.64 26.284L158.018 20.798H159.942L161.294 26.271L162.568 20.798H164.31ZM166.217 19.94C165.897 19.94 165.628 19.8403 165.411 19.641C165.203 19.433 165.099 19.1773 165.099 18.874C165.099 18.5707 165.203 18.3193 165.411 18.12C165.628 17.912 165.897 17.808 166.217 17.808C166.538 17.808 166.802 17.912 167.01 18.12C167.227 18.3193 167.335 18.5707 167.335 18.874C167.335 19.1773 167.227 19.433 167.01 19.641C166.802 19.8403 166.538 19.94 166.217 19.94ZM167.114 20.798V28H165.294V20.798H167.114ZM171.032 22.293V25.777C171.032 26.0197 171.088 26.1973 171.201 26.31C171.322 26.414 171.521 26.466 171.799 26.466H172.644V28H171.5C169.966 28 169.199 27.2547 169.199 25.764V22.293H168.341V20.798H169.199V19.017H171.032V20.798H172.644V22.293H171.032ZM178.009 20.694C178.555 20.694 179.04 20.8153 179.465 21.058C179.889 21.292 180.219 21.643 180.453 22.111C180.695 22.5703 180.817 23.125 180.817 23.775V28H178.997V24.022C178.997 23.45 178.854 23.0123 178.568 22.709C178.282 22.397 177.892 22.241 177.398 22.241C176.895 22.241 176.496 22.397 176.202 22.709C175.916 23.0123 175.773 23.45 175.773 24.022V28H173.953V18.38H175.773V21.695C176.007 21.383 176.319 21.1403 176.709 20.967C177.099 20.785 177.532 20.694 178.009 20.694Z" fill="black"/>
<defs>
<filter id="filter0_d_5_81" x="0" y="0" width="360" height="50" filterUnits="userSpaceOnUse" color-interpolation-filters="sRGB">
<feFlood flood-opacity="0" result="BackgroundImageFix"/>
<feColorMatrix in="SourceAlpha" type="matrix" values="0 0 0 0 0 0 0 0 0 0 0 0 0 0 0 0 0 0 127 0" result="hardAlpha"/>
<feOffset dy="1"/>
<feGaussianBlur stdDeviation="2.5"/>
<feComposite in2="hardAlpha" operator="out"/>
<feColorMatrix type="matrix" values="0 0 0 0 0 0 0 0 0 0 0 0 0 0 0 0 0 0 0.2 0"/>
<feBlend mode="normal" in2="BackgroundImageFix" result="effect1_dropShadow_5_81"/>
<feBlend mode="normal" in="SourceGraphic" in2="effect1_dropShadow_5_81" result="shape"/>
</filter>
<linearGradient id="paint0_linear_5_81" x1="203.107" y1="14" x2="184.757" y2="27.2334" gradientUnits="userSpaceOnUse">
<stop stop-color="#8600FA"/>
<stop offset="0.099" stop-color="#8A00F9"/>
<stop offset="0.522" stop-color="#C602E5"/>
<stop offset="0.911" stop-color="#F02376"/>
<stop offset="1" stop-color="#F4266B"/>
</linearGradient>
<clipPath id="clip0_5_81">
<rect width="71" height="19.2714" fill="white" transform="translate(188 14)"/>
</clipPath>
</defs>
</svg>
