<svg width="360" height="49" viewBox="0 0 360 49" fill="none" xmlns="http://www.w3.org/2000/svg">
<g filter="url(#filter0_d_4_41)">
<rect x="5" y="4" width="350" height="40" rx="5" fill="white"/>
</g>
<g clip-path="url(#clip0_4_41)">
<path d="M223.479 21.3465C221.252 21.3465 219.614 22.7295 219.614 25.0747C219.614 27.4199 221.252 28.803 223.479 28.803C225.691 28.803 227.329 27.4199 227.329 25.0747C227.329 22.7295 225.691 21.3465 223.479 21.3465ZM223.479 27.2033C223.2 27.2262 222.92 27.1866 222.658 27.0873C222.397 26.988 222.159 26.8314 221.963 26.6286C221.767 26.4257 221.617 26.1815 221.523 25.913C221.429 25.6446 221.394 25.3585 221.42 25.0747C221.415 24.7958 221.465 24.5188 221.566 24.2597C221.668 24.0006 221.818 23.7646 222.01 23.5657C222.202 23.3667 222.43 23.2087 222.682 23.1008C222.934 22.9929 223.205 22.9373 223.478 22.9373C223.752 22.9373 224.022 22.9929 224.274 23.1008C224.527 23.2087 224.755 23.3667 224.947 23.5657C225.138 23.7646 225.289 24.0006 225.39 24.2597C225.492 24.5188 225.541 24.7958 225.536 25.0747C225.562 25.3584 225.527 25.6445 225.434 25.9129C225.34 26.1812 225.19 26.4254 224.994 26.6283C224.798 26.8311 224.56 26.9877 224.299 27.0871C224.037 27.1864 223.757 27.2261 223.479 27.2033" fill="black"/>
<path d="M228.138 22.4747V28.6602H229.945V22.9891L233.142 23.0892V21.4895L229.244 21.3749C229.097 21.352 228.945 21.3645 228.803 21.4112C228.661 21.4579 228.531 21.5377 228.424 21.6443C228.316 21.7509 228.235 21.8813 228.186 22.0254C228.136 22.1695 228.12 22.3233 228.139 22.4747" fill="black"/>
<path d="M246.293 24.6322C246.293 22.4463 244.808 21.3465 242.863 21.3465C240.889 21.3465 239.531 22.5181 239.531 24.2034H241.239C241.239 23.2748 241.911 22.8606 242.863 22.8606C243.913 22.8606 244.459 23.3321 244.487 24.2034L242.051 24.5031C240.133 24.7461 239.433 25.491 239.433 26.6889C239.433 27.4318 239.783 28.803 241.911 28.803C243.773 28.803 244.473 27.7887 244.739 26.6296H245.215L244.935 27.4436V27.6867C244.921 27.8177 244.936 27.9504 244.978 28.0748C245.021 28.1992 245.091 28.3122 245.182 28.4054C245.274 28.4987 245.385 28.5698 245.506 28.6135C245.628 28.6572 245.758 28.6725 245.887 28.6581H247.318V27.0604H246.296L246.293 24.6322ZM242.233 27.2006C241.673 27.2006 241.239 26.9438 241.239 26.3721C241.239 25.8453 241.617 25.6721 242.373 25.5864L244.487 25.3151C244.487 26.4439 243.605 27.2006 242.233 27.2006Z" fill="black"/>
<path d="M252.802 21.3465C252.189 21.2885 251.575 21.4488 251.065 21.8004C250.554 22.1519 250.179 22.6729 250.002 23.2748H249.54L249.863 22.175V18.7925H248.056V28.66H249.863V27.9745L249.54 26.8891H250.002C250.182 27.4878 250.559 28.005 251.069 28.3535C251.579 28.7021 252.191 28.8608 252.802 28.803C254.832 28.803 255.965 27.146 255.965 25.0747C255.965 23.0035 254.831 21.3465 252.802 21.3465V21.3465ZM252.032 27.2033C250.741 27.2033 249.862 26.5605 249.862 25.0747C249.862 23.589 250.745 22.9462 252.032 22.9462C253.334 22.9462 254.162 23.589 254.162 25.0747C254.162 26.5605 253.336 27.2033 252.032 27.2033Z" fill="black"/>
<path d="M260.054 27.0603V19.7922C260.077 19.638 260.063 19.4805 260.015 19.3327C259.966 19.1848 259.883 19.0509 259.774 18.942C259.665 18.8332 259.531 18.7524 259.385 18.7065C259.239 18.6606 259.085 18.6508 258.934 18.6779L256.666 18.7925V20.3922L258.248 20.2921V27.0603H256.288V28.66H261.999V27.0603H260.054Z" fill="black"/>
<path d="M236.144 23.0892H238.398V21.4888H236.144V18.9375L234.336 19.5091V27.6887C234.316 27.84 234.33 27.994 234.378 28.1388C234.425 28.2836 234.505 28.4151 234.611 28.5231C234.717 28.6311 234.846 28.7126 234.987 28.7611C235.129 28.8097 235.28 28.8241 235.429 28.8031L238.677 28.6601V27.0605L236.142 27.2034L236.144 23.0892Z" fill="black"/>
<path d="M216.051 18.9374C215.437 18.8772 214.822 19.0367 214.311 19.3885C213.8 19.7404 213.426 20.2626 213.251 20.8657H212.789L213.111 19.7659V19.0803H209.96V20.6794H211.305V28.6601H213.112V25.5647L212.789 24.4794H213.251C213.43 25.0792 213.806 25.5976 214.316 25.9465C214.827 26.2954 215.44 26.4532 216.051 26.3932C218.081 26.3932 219.214 24.7362 219.214 22.6795C219.214 20.6082 218.08 18.9367 216.051 18.9367L216.051 18.9374ZM215.281 24.7955C213.99 24.7955 213.111 24.1665 213.111 22.6814C213.111 21.1819 213.993 20.5391 215.281 20.5391C216.583 20.5391 217.411 21.1977 217.411 22.6814C217.411 24.1527 216.585 24.7955 215.281 24.7955Z" fill="black"/>
<path d="M198.555 15.927H191V31.3444H198.555L206.107 33.2714V14L198.555 15.927ZM196.035 26.8476V20.4238L201.069 21.7087V25.5627L196.035 26.8476Z" fill="url(#paint0_linear_4_41)"/>
</g>
<path d="M97.6244 23.45C97.6244 22.5573 97.8238 21.76 98.2224 21.058C98.6298 20.3473 99.1801 19.797 99.8734 19.407C100.575 19.0083 101.36 18.809 102.226 18.809C103.24 18.809 104.129 19.069 104.891 19.589C105.654 20.109 106.187 20.8283 106.49 21.747H104.397C104.189 21.3137 103.895 20.9887 103.513 20.772C103.141 20.5553 102.707 20.447 102.213 20.447C101.685 20.447 101.212 20.5727 100.796 20.824C100.389 21.0667 100.068 21.4133 99.8344 21.864C99.6091 22.3147 99.4964 22.8433 99.4964 23.45C99.4964 24.048 99.6091 24.5767 99.8344 25.036C100.068 25.4867 100.389 25.8377 100.796 26.089C101.212 26.3317 101.685 26.453 102.213 26.453C102.707 26.453 103.141 26.3447 103.513 26.128C103.895 25.9027 104.189 25.5733 104.397 25.14H106.49C106.187 26.0673 105.654 26.791 104.891 27.311C104.137 27.8223 103.249 28.078 102.226 28.078C101.36 28.078 100.575 27.883 99.8734 27.493C99.1801 27.0943 98.6298 26.544 98.2224 25.842C97.8238 25.14 97.6244 24.3427 97.6244 23.45ZM111.243 28.117C110.55 28.117 109.926 27.9653 109.371 27.662C108.816 27.35 108.379 26.9123 108.058 26.349C107.746 25.7857 107.59 25.1357 107.59 24.399C107.59 23.6623 107.75 23.0123 108.071 22.449C108.4 21.8857 108.847 21.4523 109.41 21.149C109.973 20.837 110.602 20.681 111.295 20.681C111.988 20.681 112.617 20.837 113.18 21.149C113.743 21.4523 114.185 21.8857 114.506 22.449C114.835 23.0123 115 23.6623 115 24.399C115 25.1357 114.831 25.7857 114.493 26.349C114.164 26.9123 113.713 27.35 113.141 27.662C112.578 27.9653 111.945 28.117 111.243 28.117ZM111.243 26.531C111.572 26.531 111.88 26.453 112.166 26.297C112.461 26.1323 112.695 25.8897 112.868 25.569C113.041 25.2483 113.128 24.8583 113.128 24.399C113.128 23.7143 112.946 23.19 112.582 22.826C112.227 22.4533 111.789 22.267 111.269 22.267C110.749 22.267 110.311 22.4533 109.956 22.826C109.609 23.19 109.436 23.7143 109.436 24.399C109.436 25.0837 109.605 25.6123 109.943 25.985C110.29 26.349 110.723 26.531 111.243 26.531ZM120.326 20.694C121.184 20.694 121.877 20.967 122.406 21.513C122.935 22.0503 123.199 22.8043 123.199 23.775V28H121.379V24.022C121.379 23.45 121.236 23.0123 120.95 22.709C120.664 22.397 120.274 22.241 119.78 22.241C119.277 22.241 118.879 22.397 118.584 22.709C118.298 23.0123 118.155 23.45 118.155 24.022V28H116.335V20.798H118.155V21.695C118.398 21.383 118.705 21.1403 119.078 20.967C119.459 20.785 119.875 20.694 120.326 20.694ZM128.921 20.694C129.779 20.694 130.472 20.967 131.001 21.513C131.529 22.0503 131.794 22.8043 131.794 23.775V28H129.974V24.022C129.974 23.45 129.831 23.0123 129.545 22.709C129.259 22.397 128.869 22.241 128.375 22.241C127.872 22.241 127.473 22.397 127.179 22.709C126.893 23.0123 126.75 23.45 126.75 24.022V28H124.93V20.798H126.75V21.695C126.992 21.383 127.3 21.1403 127.673 20.967C128.054 20.785 128.47 20.694 128.921 20.694ZM140.219 24.243C140.219 24.503 140.202 24.737 140.167 24.945H134.902C134.946 25.465 135.128 25.8723 135.448 26.167C135.769 26.4617 136.163 26.609 136.631 26.609C137.307 26.609 137.788 26.3187 138.074 25.738H140.037C139.829 26.4313 139.431 27.0033 138.841 27.454C138.252 27.896 137.528 28.117 136.67 28.117C135.977 28.117 135.353 27.9653 134.798 27.662C134.252 27.35 133.823 26.9123 133.511 26.349C133.208 25.7857 133.056 25.1357 133.056 24.399C133.056 23.6537 133.208 22.9993 133.511 22.436C133.815 21.8727 134.239 21.4393 134.785 21.136C135.331 20.8327 135.96 20.681 136.67 20.681C137.355 20.681 137.966 20.8283 138.503 21.123C139.049 21.4177 139.47 21.838 139.764 22.384C140.068 22.9213 140.219 23.541 140.219 24.243ZM138.334 23.723C138.326 23.255 138.157 22.8823 137.827 22.605C137.498 22.319 137.095 22.176 136.618 22.176C136.168 22.176 135.786 22.3147 135.474 22.592C135.171 22.8607 134.985 23.2377 134.915 23.723H138.334ZM141.08 24.399C141.08 23.6537 141.232 23.0037 141.535 22.449C141.838 21.8857 142.259 21.4523 142.796 21.149C143.333 20.837 143.949 20.681 144.642 20.681C145.535 20.681 146.271 20.9063 146.852 21.357C147.441 21.799 147.836 22.423 148.035 23.229H146.072C145.968 22.917 145.79 22.6743 145.539 22.501C145.296 22.319 144.993 22.228 144.629 22.228C144.109 22.228 143.697 22.4187 143.394 22.8C143.091 23.1727 142.939 23.7057 142.939 24.399C142.939 25.0837 143.091 25.6167 143.394 25.998C143.697 26.3707 144.109 26.557 144.629 26.557C145.366 26.557 145.847 26.2277 146.072 25.569H148.035C147.836 26.349 147.441 26.9687 146.852 27.428C146.263 27.8873 145.526 28.117 144.642 28.117C143.949 28.117 143.333 27.9653 142.796 27.662C142.259 27.35 141.838 26.9167 141.535 26.362C141.232 25.7987 141.08 25.1443 141.08 24.399ZM151.487 22.293V25.777C151.487 26.0197 151.544 26.1973 151.656 26.31C151.778 26.414 151.977 26.466 152.254 26.466H153.099V28H151.955C150.421 28 149.654 27.2547 149.654 25.764V22.293H148.796V20.798H149.654V19.017H151.487V20.798H153.099V22.293H151.487ZM167.49 20.798L165.384 28H163.421L162.108 22.969L160.795 28H158.819L156.7 20.798H158.546L159.82 26.284L161.198 20.798H163.122L164.474 26.271L165.748 20.798H167.49ZM169.398 19.94C169.077 19.94 168.808 19.8403 168.592 19.641C168.384 19.433 168.28 19.1773 168.28 18.874C168.28 18.5707 168.384 18.3193 168.592 18.12C168.808 17.912 169.077 17.808 169.398 17.808C169.718 17.808 169.983 17.912 170.191 18.12C170.407 18.3193 170.516 18.5707 170.516 18.874C170.516 19.1773 170.407 19.433 170.191 19.641C169.983 19.8403 169.718 19.94 169.398 19.94ZM170.295 20.798V28H168.475V20.798H170.295ZM174.212 22.293V25.777C174.212 26.0197 174.268 26.1973 174.381 26.31C174.502 26.414 174.701 26.466 174.979 26.466H175.824V28H174.68C173.146 28 172.379 27.2547 172.379 25.764V22.293H171.521V20.798H172.379V19.017H174.212V20.798H175.824V22.293H174.212ZM181.189 20.694C181.735 20.694 182.22 20.8153 182.645 21.058C183.07 21.292 183.399 21.643 183.633 22.111C183.876 22.5703 183.997 23.125 183.997 23.775V28H182.177V24.022C182.177 23.45 182.034 23.0123 181.748 22.709C181.462 22.397 181.072 22.241 180.578 22.241C180.075 22.241 179.677 22.397 179.382 22.709C179.096 23.0123 178.953 23.45 178.953 24.022V28H177.133V18.38H178.953V21.695C179.187 21.383 179.499 21.1403 179.889 20.967C180.279 20.785 180.712 20.694 181.189 20.694Z" fill="black"/>
<defs>
<filter id="filter0_d_4_41" x="0" y="0" width="360" height="50" filterUnits="userSpaceOnUse" color-interpolation-filters="sRGB">
<feFlood flood-opacity="0" result="BackgroundImageFix"/>
<feColorMatrix in="SourceAlpha" type="matrix" values="0 0 0 0 0 0 0 0 0 0 0 0 0 0 0 0 0 0 127 0" result="hardAlpha"/>
<feOffset dy="1"/>
<feGaussianBlur stdDeviation="2.5"/>
<feComposite in2="hardAlpha" operator="out"/>
<feColorMatrix type="matrix" values="0 0 0 0 0 0 0 0 0 0 0 0 0 0 0 0 0 0 0.2 0"/>
<feBlend mode="normal" in2="BackgroundImageFix" result="effect1_dropShadow_4_41"/>
<feBlend mode="normal" in="SourceGraphic" in2="effect1_dropShadow_4_41" result="shape"/>
</filter>
<linearGradient id="paint0_linear_4_41" x1="206.107" y1="14" x2="187.757" y2="27.2334" gradientUnits="userSpaceOnUse">
<stop stop-color="#8600FA"/>
<stop offset="0.099" stop-color="#8A00F9"/>
<stop offset="0.522" stop-color="#C602E5"/>
<stop offset="0.911" stop-color="#F02376"/>
<stop offset="1" stop-color="#F4266B"/>
</linearGradient>
<clipPath id="clip0_4_41">
<rect width="71" height="19.2714" fill="white" transform="translate(191 14)"/>
</clipPath>
</defs>
</svg>
