<svg width="378" height="228" viewBox="0 0 378 228" fill="none" xmlns="http://www.w3.org/2000/svg">
<g filter="url(#filter0_d_428_956)">
<rect x="14" y="11" width="350" height="200" rx="18" fill="white"/>
</g>
<g clip-path="url(#clip0_428_956)">
<path d="M84.6594 44.3945C81.4613 44.3945 79.1078 46.3514 79.1078 49.6696C79.1078 52.9879 81.4613 54.9448 84.6594 54.9448C87.8372 54.9448 90.1906 52.9879 90.1906 49.6696C90.1906 46.3514 87.8372 44.3945 84.6594 44.3945ZM84.6594 52.6813C84.2595 52.7137 83.8573 52.6577 83.4812 52.5172C83.1051 52.3767 82.7641 52.1552 82.4823 51.8682C82.2005 51.5811 81.9846 51.2356 81.8499 50.8558C81.7151 50.476 81.6648 50.0711 81.7023 49.6696C81.6954 49.275 81.7667 48.883 81.9122 48.5164C82.0577 48.1498 82.2743 47.816 82.5496 47.5345C82.8248 47.2529 83.1531 47.0293 83.5153 46.8767C83.8774 46.724 84.2662 46.6454 84.659 46.6454C85.0517 46.6454 85.4405 46.724 85.8027 46.8767C86.1649 47.0293 86.4931 47.2529 86.7684 47.5345C87.0436 47.816 87.2603 48.1498 87.4057 48.5164C87.5512 48.883 87.6225 49.275 87.6156 49.6696C87.6531 50.071 87.6028 50.4758 87.4681 50.8555C87.3334 51.2353 87.1176 51.5808 86.8359 51.8678C86.5542 52.1548 86.2134 52.3764 85.8374 52.5169C85.4614 52.6574 85.0593 52.7136 84.6594 52.6813" fill="black"/>
<path d="M91.3525 45.9909V54.7427H93.9489V46.7186L98.5417 46.8603V44.5969L92.9428 44.4347C92.7303 44.4024 92.5132 44.4199 92.3086 44.4861C92.104 44.5522 91.9174 44.6651 91.7635 44.8159C91.6096 44.9666 91.4926 45.1512 91.4216 45.3551C91.3506 45.5589 91.3276 45.7766 91.3544 45.9909" fill="black"/>
<path d="M117.435 49.0435C117.435 45.9507 115.302 44.3945 112.507 44.3945C109.672 44.3945 107.721 46.0523 107.721 48.4368H110.174C110.174 47.1229 111.14 46.5368 112.507 46.5368C114.016 46.5368 114.8 47.204 114.84 48.4368L111.341 48.8608C108.585 49.2047 107.58 50.2586 107.58 51.9536C107.58 53.0047 108.082 54.9448 111.14 54.9448C113.815 54.9448 114.82 53.5097 115.202 51.8697H115.886L115.484 53.0214V53.3653C115.464 53.5508 115.485 53.7384 115.547 53.9145C115.608 54.0905 115.708 54.2504 115.84 54.3823C115.971 54.5142 116.13 54.6148 116.305 54.6767C116.48 54.7386 116.667 54.7601 116.852 54.7398H118.907V52.4791H117.439L117.435 49.0435ZM111.602 52.6776C110.797 52.6776 110.174 52.3142 110.174 51.5054C110.174 50.7599 110.717 50.5148 111.804 50.3937L114.84 50.0098C114.84 51.6069 113.573 52.6776 111.602 52.6776Z" fill="black"/>
<path d="M126.786 44.3949C125.905 44.3128 125.023 44.5397 124.29 45.0371C123.557 45.5344 123.018 46.2716 122.764 47.1233H122.1L122.564 45.5671V40.7812H119.967V54.7429H122.564V53.7729L122.1 52.2372H122.764C123.023 53.0843 123.564 53.816 124.296 54.3092C125.029 54.8024 125.908 55.027 126.786 54.9451C129.703 54.9451 131.33 52.6006 131.33 49.67C131.33 46.7394 129.701 44.3949 126.786 44.3949V44.3949ZM125.68 52.6817C123.826 52.6817 122.563 51.7722 122.563 49.67C122.563 47.5678 123.83 46.6583 125.68 46.6583C127.55 46.6583 128.74 47.5678 128.74 49.67C128.74 51.7722 127.553 52.6817 125.68 52.6817Z" fill="black"/>
<path d="M137.204 52.4793V42.1955C137.237 41.9774 137.218 41.7545 137.148 41.5453C137.078 41.3361 136.959 41.1467 136.802 40.9926C136.645 40.8385 136.453 40.7243 136.244 40.6593C136.034 40.5943 135.812 40.5805 135.595 40.6189L132.337 40.781V43.0444L134.61 42.9028V52.4793H131.794V54.7427H139.999V52.4793H137.204Z" fill="black"/>
<path d="M102.854 46.8606H106.092V44.5963H102.854V40.9863L100.258 41.7952V53.3685C100.228 53.5825 100.249 53.8005 100.317 54.0054C100.385 54.2102 100.5 54.3963 100.652 54.5491C100.804 54.7019 100.989 54.8171 101.193 54.8859C101.397 54.9546 101.614 54.9749 101.827 54.9452L106.493 54.743V52.4796L102.853 52.6818L102.854 46.8606Z" fill="black"/>
<path d="M73.9884 40.9864C73.107 40.9012 72.2235 41.1268 71.4896 41.6247C70.7556 42.1225 70.2169 42.8614 69.9659 43.7148H69.3019L69.7656 42.1586V41.1886H65.2377V43.4511H67.1701V54.743H69.7665V50.3634L69.3029 48.8277H69.9668C70.223 49.6765 70.7636 50.41 71.4968 50.9036C72.2301 51.3972 73.1108 51.6205 73.9893 51.5357C76.9056 51.5357 78.5329 49.1912 78.5329 46.281C78.5329 43.3504 76.9037 40.9854 73.9893 40.9854L73.9884 40.9864ZM72.8821 49.275C71.0276 49.275 69.7647 48.3851 69.7647 46.2838C69.7647 44.1621 71.0322 43.2526 72.8821 43.2526C74.7524 43.2526 75.9421 44.1844 75.9421 46.2838C75.9421 48.3656 74.7552 49.275 72.8821 49.275Z" fill="black"/>
<path d="M48.8537 36.7265H38V58.5408H48.8537L59.7028 61.2673V34L48.8537 36.7265ZM45.2327 52.1782V43.0891L52.4655 44.9071V50.3602L45.2327 52.1782Z" fill="url(#paint0_linear_428_956)"/>
</g>
<path d="M49.298 88.27V98H47.702V91.336L44.734 98H43.628L40.646 91.336V98H39.05V88.27H40.772L44.188 95.9L47.59 88.27H49.298ZM50.8637 94.108C50.8637 93.3333 51.0224 92.6473 51.3397 92.05C51.6664 91.4527 52.105 90.9907 52.6557 90.664C53.2157 90.328 53.8317 90.16 54.5037 90.16C55.1104 90.16 55.6377 90.2813 56.0857 90.524C56.543 90.7573 56.907 91.0513 57.1777 91.406V90.286H58.7877V98H57.1777V96.852C56.907 97.216 56.5384 97.5193 56.0717 97.762C55.605 98.0047 55.073 98.126 54.4757 98.126C53.813 98.126 53.2064 97.958 52.6557 97.622C52.105 97.2767 51.6664 96.8007 51.3397 96.194C51.0224 95.578 50.8637 94.8827 50.8637 94.108ZM57.1777 94.136C57.1777 93.604 57.0657 93.142 56.8417 92.75C56.627 92.358 56.3424 92.0593 55.9877 91.854C55.633 91.6487 55.2504 91.546 54.8397 91.546C54.429 91.546 54.0464 91.6487 53.6917 91.854C53.337 92.05 53.0477 92.344 52.8237 92.736C52.609 93.1187 52.5017 93.576 52.5017 94.108C52.5017 94.64 52.609 95.1067 52.8237 95.508C53.0477 95.9093 53.337 96.2173 53.6917 96.432C54.0557 96.6373 54.4384 96.74 54.8397 96.74C55.2504 96.74 55.633 96.6373 55.9877 96.432C56.3424 96.2267 56.627 95.928 56.8417 95.536C57.0657 95.1347 57.1777 94.668 57.1777 94.136ZM64.776 90.16C65.3827 90.16 65.924 90.286 66.4 90.538C66.8853 90.79 67.2633 91.1633 67.534 91.658C67.8047 92.1527 67.94 92.75 67.94 93.45V98H66.358V93.688C66.358 92.9973 66.1853 92.47 65.84 92.106C65.4947 91.7327 65.0233 91.546 64.426 91.546C63.8287 91.546 63.3527 91.7327 62.998 92.106C62.6527 92.47 62.48 92.9973 62.48 93.688V98H60.884V90.286H62.48V91.168C62.7413 90.8507 63.0727 90.6033 63.474 90.426C63.8847 90.2487 64.3187 90.16 64.776 90.16ZM69.4438 94.108C69.4438 93.3333 69.6024 92.6473 69.9198 92.05C70.2464 91.4527 70.6851 90.9907 71.2358 90.664C71.7958 90.328 72.4118 90.16 73.0838 90.16C73.6904 90.16 74.2178 90.2813 74.6658 90.524C75.1231 90.7573 75.4871 91.0513 75.7578 91.406V90.286H77.3678V98H75.7578V96.852C75.4871 97.216 75.1184 97.5193 74.6518 97.762C74.1851 98.0047 73.6531 98.126 73.0558 98.126C72.3931 98.126 71.7864 97.958 71.2358 97.622C70.6851 97.2767 70.2464 96.8007 69.9198 96.194C69.6024 95.578 69.4438 94.8827 69.4438 94.108ZM75.7578 94.136C75.7578 93.604 75.6458 93.142 75.4218 92.75C75.2071 92.358 74.9224 92.0593 74.5678 91.854C74.2131 91.6487 73.8304 91.546 73.4198 91.546C73.0091 91.546 72.6264 91.6487 72.2718 91.854C71.9171 92.05 71.6278 92.344 71.4038 92.736C71.1891 93.1187 71.0818 93.576 71.0818 94.108C71.0818 94.64 71.1891 95.1067 71.4038 95.508C71.6278 95.9093 71.9171 96.2173 72.2718 96.432C72.6358 96.6373 73.0184 96.74 73.4198 96.74C73.8304 96.74 74.2131 96.6373 74.5678 96.432C74.9224 96.2267 75.2071 95.928 75.4218 95.536C75.6458 95.1347 75.7578 94.668 75.7578 94.136ZM82.5721 90.16C83.1694 90.16 83.6967 90.2813 84.1541 90.524C84.6207 90.7573 84.9847 91.0513 85.2461 91.406V90.286H86.8561V98.126C86.8561 98.8353 86.7067 99.4653 86.4081 100.016C86.1094 100.576 85.6754 101.015 85.1061 101.332C84.5461 101.649 83.8741 101.808 83.0901 101.808C82.0447 101.808 81.1767 101.561 80.4861 101.066C79.7954 100.581 79.4034 99.918 79.3101 99.078H80.8921C81.0134 99.4793 81.2701 99.8013 81.6621 100.044C82.0634 100.296 82.5394 100.422 83.0901 100.422C83.7341 100.422 84.2521 100.226 84.6441 99.834C85.0454 99.442 85.2461 98.8727 85.2461 98.126V96.838C84.9754 97.202 84.6067 97.51 84.1401 97.762C83.6827 98.0047 83.1601 98.126 82.5721 98.126C81.9001 98.126 81.2841 97.958 80.7241 97.622C80.1734 97.2767 79.7347 96.8007 79.4081 96.194C79.0907 95.578 78.9321 94.8827 78.9321 94.108C78.9321 93.3333 79.0907 92.6473 79.4081 92.05C79.7347 91.4527 80.1734 90.9907 80.7241 90.664C81.2841 90.328 81.9001 90.16 82.5721 90.16ZM85.2461 94.136C85.2461 93.604 85.1341 93.142 84.9101 92.75C84.6954 92.358 84.4107 92.0593 84.0561 91.854C83.7014 91.6487 83.3187 91.546 82.9081 91.546C82.4974 91.546 82.1147 91.6487 81.7601 91.854C81.4054 92.05 81.1161 92.344 80.8921 92.736C80.6774 93.1187 80.5701 93.576 80.5701 94.108C80.5701 94.64 80.6774 95.1067 80.8921 95.508C81.1161 95.9093 81.4054 96.2173 81.7601 96.432C82.1241 96.6373 82.5067 96.74 82.9081 96.74C83.3187 96.74 83.7014 96.6373 84.0561 96.432C84.4107 96.2267 84.6954 95.928 84.9101 95.536C85.1341 95.1347 85.2461 94.668 85.2461 94.136ZM96.0223 93.954C96.0223 94.2433 96.0037 94.5047 95.9663 94.738H90.0723C90.119 95.354 90.3477 95.8487 90.7583 96.222C91.169 96.5953 91.673 96.782 92.2703 96.782C93.129 96.782 93.7357 96.4227 94.0903 95.704H95.8123C95.579 96.4133 95.1543 96.9967 94.5383 97.454C93.9317 97.902 93.1757 98.126 92.2703 98.126C91.533 98.126 90.8703 97.9627 90.2823 97.636C89.7037 97.3 89.2463 96.8333 88.9103 96.236C88.5837 95.6293 88.4203 94.9293 88.4203 94.136C88.4203 93.3427 88.579 92.6473 88.8963 92.05C89.223 91.4433 89.6757 90.9767 90.2543 90.65C90.8423 90.3233 91.5143 90.16 92.2703 90.16C92.9983 90.16 93.647 90.3187 94.2163 90.636C94.7857 90.9533 95.229 91.4013 95.5463 91.98C95.8637 92.5493 96.0223 93.2073 96.0223 93.954ZM94.3563 93.45C94.347 92.862 94.137 92.3907 93.7263 92.036C93.3157 91.6813 92.807 91.504 92.2003 91.504C91.6497 91.504 91.1783 91.6813 90.7863 92.036C90.3943 92.3813 90.161 92.8527 90.0863 93.45H94.3563ZM100.698 94.108C100.698 93.3333 100.856 92.6473 101.174 92.05C101.5 91.4527 101.939 90.9907 102.49 90.664C103.05 90.328 103.666 90.16 104.338 90.16C104.944 90.16 105.472 90.2813 105.92 90.524C106.377 90.7573 106.741 91.0513 107.012 91.406V90.286H108.622V98H107.012V96.852C106.741 97.216 106.372 97.5193 105.906 97.762C105.439 98.0047 104.907 98.126 104.31 98.126C103.647 98.126 103.04 97.958 102.49 97.622C101.939 97.2767 101.5 96.8007 101.174 96.194C100.856 95.578 100.698 94.8827 100.698 94.108ZM107.012 94.136C107.012 93.604 106.9 93.142 106.676 92.75C106.461 92.358 106.176 92.0593 105.822 91.854C105.467 91.6487 105.084 91.546 104.674 91.546C104.263 91.546 103.88 91.6487 103.526 91.854C103.171 92.05 102.882 92.344 102.658 92.736C102.443 93.1187 102.336 93.576 102.336 94.108C102.336 94.64 102.443 95.1067 102.658 95.508C102.882 95.9093 103.171 96.2173 103.526 96.432C103.89 96.6373 104.272 96.74 104.674 96.74C105.084 96.74 105.467 96.6373 105.822 96.432C106.176 96.2267 106.461 95.928 106.676 95.536C106.9 95.1347 107.012 94.668 107.012 94.136ZM112.314 87.64V98H110.718V87.64H112.314ZM116.005 87.64V98H114.409V87.64H116.005ZM128.682 90.286L123.95 101.626H122.298L123.866 97.874L120.828 90.286H122.606L124.776 96.166L127.03 90.286H128.682ZM133.232 98.126C132.504 98.126 131.846 97.9627 131.258 97.636C130.67 97.3 130.208 96.8333 129.872 96.236C129.536 95.6293 129.368 94.9293 129.368 94.136C129.368 93.352 129.541 92.6567 129.886 92.05C130.231 91.4433 130.703 90.9767 131.3 90.65C131.897 90.3233 132.565 90.16 133.302 90.16C134.039 90.16 134.707 90.3233 135.304 90.65C135.901 90.9767 136.373 91.4433 136.718 92.05C137.063 92.6567 137.236 93.352 137.236 94.136C137.236 94.92 137.059 95.6153 136.704 96.222C136.349 96.8287 135.864 97.3 135.248 97.636C134.641 97.9627 133.969 98.126 133.232 98.126ZM133.232 96.74C133.643 96.74 134.025 96.642 134.38 96.446C134.744 96.25 135.038 95.956 135.262 95.564C135.486 95.172 135.598 94.696 135.598 94.136C135.598 93.576 135.491 93.1047 135.276 92.722C135.061 92.33 134.777 92.036 134.422 91.84C134.067 91.644 133.685 91.546 133.274 91.546C132.863 91.546 132.481 91.644 132.126 91.84C131.781 92.036 131.505 92.33 131.3 92.722C131.095 93.1047 130.992 93.576 130.992 94.136C130.992 94.9667 131.202 95.6107 131.622 96.068C132.051 96.516 132.588 96.74 133.232 96.74ZM145.8 90.286V98H144.204V97.09C143.952 97.4073 143.62 97.6593 143.21 97.846C142.808 98.0233 142.379 98.112 141.922 98.112C141.315 98.112 140.769 97.986 140.284 97.734C139.808 97.482 139.43 97.1087 139.15 96.614C138.879 96.1193 138.744 95.522 138.744 94.822V90.286H140.326V94.584C140.326 95.2747 140.498 95.8067 140.844 96.18C141.189 96.544 141.66 96.726 142.258 96.726C142.855 96.726 143.326 96.544 143.672 96.18C144.026 95.8067 144.204 95.2747 144.204 94.584V90.286H145.8ZM149.501 91.406C149.735 91.014 150.043 90.7107 150.425 90.496C150.817 90.272 151.279 90.16 151.811 90.16V91.812H151.405C150.78 91.812 150.304 91.9707 149.977 92.288C149.66 92.6053 149.501 93.156 149.501 93.94V98H147.905V90.286H149.501V91.406ZM160.149 91.588H158.721V98H157.111V91.588H156.201V90.286H157.111V89.74C157.111 88.8533 157.345 88.2093 157.811 87.808C158.287 87.3973 159.029 87.192 160.037 87.192V88.522C159.552 88.522 159.211 88.6153 159.015 88.802C158.819 88.9793 158.721 89.292 158.721 89.74V90.286H160.149V91.588ZM162.376 89.264C162.086 89.264 161.844 89.166 161.648 88.97C161.452 88.774 161.354 88.5313 161.354 88.242C161.354 87.9527 161.452 87.71 161.648 87.514C161.844 87.318 162.086 87.22 162.376 87.22C162.656 87.22 162.894 87.318 163.09 87.514C163.286 87.71 163.384 87.9527 163.384 88.242C163.384 88.5313 163.286 88.774 163.09 88.97C162.894 89.166 162.656 89.264 162.376 89.264ZM163.16 90.286V98H161.564V90.286H163.16ZM169.147 90.16C169.754 90.16 170.295 90.286 170.771 90.538C171.256 90.79 171.634 91.1633 171.905 91.658C172.176 92.1527 172.311 92.75 172.311 93.45V98H170.729V93.688C170.729 92.9973 170.556 92.47 170.211 92.106C169.866 91.7327 169.394 91.546 168.797 91.546C168.2 91.546 167.724 91.7327 167.369 92.106C167.024 92.47 166.851 92.9973 166.851 93.688V98H165.255V90.286H166.851V91.168C167.112 90.8507 167.444 90.6033 167.845 90.426C168.256 90.2487 168.69 90.16 169.147 90.16ZM173.815 94.108C173.815 93.3333 173.974 92.6473 174.291 92.05C174.618 91.4527 175.056 90.9907 175.607 90.664C176.167 90.328 176.783 90.16 177.455 90.16C178.062 90.16 178.589 90.2813 179.037 90.524C179.494 90.7573 179.858 91.0513 180.129 91.406V90.286H181.739V98H180.129V96.852C179.858 97.216 179.49 97.5193 179.023 97.762C178.556 98.0047 178.024 98.126 177.427 98.126C176.764 98.126 176.158 97.958 175.607 97.622C175.056 97.2767 174.618 96.8007 174.291 96.194C173.974 95.578 173.815 94.8827 173.815 94.108ZM180.129 94.136C180.129 93.604 180.017 93.142 179.793 92.75C179.578 92.358 179.294 92.0593 178.939 91.854C178.584 91.6487 178.202 91.546 177.791 91.546C177.38 91.546 176.998 91.6487 176.643 91.854C176.288 92.05 175.999 92.344 175.775 92.736C175.56 93.1187 175.453 93.576 175.453 94.108C175.453 94.64 175.56 95.1067 175.775 95.508C175.999 95.9093 176.288 96.2173 176.643 96.432C177.007 96.6373 177.39 96.74 177.791 96.74C178.202 96.74 178.584 96.6373 178.939 96.432C179.294 96.2267 179.578 95.928 179.793 95.536C180.017 95.1347 180.129 94.668 180.129 94.136ZM187.727 90.16C188.334 90.16 188.875 90.286 189.351 90.538C189.836 90.79 190.214 91.1633 190.485 91.658C190.756 92.1527 190.891 92.75 190.891 93.45V98H189.309V93.688C189.309 92.9973 189.136 92.47 188.791 92.106C188.446 91.7327 187.974 91.546 187.377 91.546C186.78 91.546 186.304 91.7327 185.949 92.106C185.604 92.47 185.431 92.9973 185.431 93.688V98H183.835V90.286H185.431V91.168C185.692 90.8507 186.024 90.6033 186.425 90.426C186.836 90.2487 187.27 90.16 187.727 90.16ZM192.395 94.136C192.395 93.3427 192.554 92.6473 192.871 92.05C193.198 91.4433 193.646 90.9767 194.215 90.65C194.784 90.3233 195.438 90.16 196.175 90.16C197.108 90.16 197.878 90.384 198.485 90.832C199.101 91.2707 199.516 91.9007 199.731 92.722H198.009C197.869 92.3393 197.645 92.0407 197.337 91.826C197.029 91.6113 196.642 91.504 196.175 91.504C195.522 91.504 194.999 91.7373 194.607 92.204C194.224 92.6613 194.033 93.3053 194.033 94.136C194.033 94.9667 194.224 95.6153 194.607 96.082C194.999 96.5487 195.522 96.782 196.175 96.782C197.099 96.782 197.71 96.376 198.009 95.564H199.731C199.507 96.348 199.087 96.9733 198.471 97.44C197.855 97.8973 197.09 98.126 196.175 98.126C195.438 98.126 194.784 97.9627 194.215 97.636C193.646 97.3 193.198 96.8333 192.871 96.236C192.554 95.6293 192.395 94.9293 192.395 94.136ZM202.133 89.264C201.844 89.264 201.601 89.166 201.405 88.97C201.209 88.774 201.111 88.5313 201.111 88.242C201.111 87.9527 201.209 87.71 201.405 87.514C201.601 87.318 201.844 87.22 202.133 87.22C202.413 87.22 202.651 87.318 202.847 87.514C203.043 87.71 203.141 87.9527 203.141 88.242C203.141 88.5313 203.043 88.774 202.847 88.97C202.651 89.166 202.413 89.264 202.133 89.264ZM202.917 90.286V98H201.321V90.286H202.917ZM204.481 94.108C204.481 93.3333 204.64 92.6473 204.957 92.05C205.284 91.4527 205.722 90.9907 206.273 90.664C206.833 90.328 207.449 90.16 208.121 90.16C208.728 90.16 209.255 90.2813 209.703 90.524C210.16 90.7573 210.524 91.0513 210.795 91.406V90.286H212.405V98H210.795V96.852C210.524 97.216 210.156 97.5193 209.689 97.762C209.222 98.0047 208.69 98.126 208.093 98.126C207.43 98.126 206.824 97.958 206.273 97.622C205.722 97.2767 205.284 96.8007 204.957 96.194C204.64 95.578 204.481 94.8827 204.481 94.108ZM210.795 94.136C210.795 93.604 210.683 93.142 210.459 92.75C210.244 92.358 209.96 92.0593 209.605 91.854C209.25 91.6487 208.868 91.546 208.457 91.546C208.046 91.546 207.664 91.6487 207.309 91.854C206.954 92.05 206.665 92.344 206.441 92.736C206.226 93.1187 206.119 93.576 206.119 94.108C206.119 94.64 206.226 95.1067 206.441 95.508C206.665 95.9093 206.954 96.2173 207.309 96.432C207.673 96.6373 208.056 96.74 208.457 96.74C208.868 96.74 209.25 96.6373 209.605 96.432C209.96 96.2267 210.244 95.928 210.459 95.536C210.683 95.1347 210.795 94.668 210.795 94.136ZM216.097 87.64V98H214.501V87.64H216.097ZM222.641 89.264C222.352 89.264 222.109 89.166 221.913 88.97C221.717 88.774 221.619 88.5313 221.619 88.242C221.619 87.9527 221.717 87.71 221.913 87.514C222.109 87.318 222.352 87.22 222.641 87.22C222.921 87.22 223.159 87.318 223.355 87.514C223.551 87.71 223.649 87.9527 223.649 88.242C223.649 88.5313 223.551 88.774 223.355 88.97C223.159 89.166 222.921 89.264 222.641 89.264ZM223.425 90.286V98H221.829V90.286H223.425ZM224.989 94.108C224.989 93.3333 225.147 92.6473 225.465 92.05C225.791 91.4527 226.23 90.9907 226.781 90.664C227.341 90.328 227.961 90.16 228.643 90.16C229.147 90.16 229.641 90.272 230.127 90.496C230.621 90.7107 231.013 91 231.303 91.364V87.64H232.913V98H231.303V96.838C231.041 97.2113 230.677 97.5193 230.211 97.762C229.753 98.0047 229.226 98.126 228.629 98.126C227.957 98.126 227.341 97.958 226.781 97.622C226.23 97.2767 225.791 96.8007 225.465 96.194C225.147 95.578 224.989 94.8827 224.989 94.108ZM231.303 94.136C231.303 93.604 231.191 93.142 230.967 92.75C230.752 92.358 230.467 92.0593 230.113 91.854C229.758 91.6487 229.375 91.546 228.965 91.546C228.554 91.546 228.171 91.6487 227.817 91.854C227.462 92.05 227.173 92.344 226.949 92.736C226.734 93.1187 226.627 93.576 226.627 94.108C226.627 94.64 226.734 95.1067 226.949 95.508C227.173 95.9093 227.462 96.2173 227.817 96.432C228.181 96.6373 228.563 96.74 228.965 96.74C229.375 96.74 229.758 96.6373 230.113 96.432C230.467 96.2267 230.752 95.928 230.967 95.536C231.191 95.1347 231.303 94.668 231.303 94.136ZM242.079 93.954C242.079 94.2433 242.06 94.5047 242.023 94.738H236.129C236.176 95.354 236.404 95.8487 236.815 96.222C237.226 96.5953 237.73 96.782 238.327 96.782C239.186 96.782 239.792 96.4227 240.147 95.704H241.869C241.636 96.4133 241.211 96.9967 240.595 97.454C239.988 97.902 239.232 98.126 238.327 98.126C237.59 98.126 236.927 97.9627 236.339 97.636C235.76 97.3 235.303 96.8333 234.967 96.236C234.64 95.6293 234.477 94.9293 234.477 94.136C234.477 93.3427 234.636 92.6473 234.953 92.05C235.28 91.4433 235.732 90.9767 236.311 90.65C236.899 90.3233 237.571 90.16 238.327 90.16C239.055 90.16 239.704 90.3187 240.273 90.636C240.842 90.9533 241.286 91.4013 241.603 91.98C241.92 92.5493 242.079 93.2073 242.079 93.954ZM240.413 93.45C240.404 92.862 240.194 92.3907 239.783 92.036C239.372 91.6813 238.864 91.504 238.257 91.504C237.706 91.504 237.235 91.6813 236.843 92.036C236.451 92.3813 236.218 92.8527 236.143 93.45H240.413ZM247.542 90.16C248.148 90.16 248.69 90.286 249.166 90.538C249.651 90.79 250.029 91.1633 250.3 91.658C250.57 92.1527 250.706 92.75 250.706 93.45V98H249.124V93.688C249.124 92.9973 248.951 92.47 248.606 92.106C248.26 91.7327 247.789 91.546 247.192 91.546C246.594 91.546 246.118 91.7327 245.764 92.106C245.418 92.47 245.246 92.9973 245.246 93.688V98H243.65V90.286H245.246V91.168C245.507 90.8507 245.838 90.6033 246.24 90.426C246.65 90.2487 247.084 90.16 247.542 90.16ZM254.603 91.588V95.858C254.603 96.1473 254.669 96.3573 254.799 96.488C254.939 96.6093 255.173 96.67 255.499 96.67H256.479V98H255.219C254.501 98 253.95 97.832 253.567 97.496C253.185 97.16 252.993 96.614 252.993 95.858V91.588H252.083V90.286H252.993V88.368H254.603V90.286H256.479V91.588H254.603ZM258.762 89.264C258.473 89.264 258.23 89.166 258.034 88.97C257.838 88.774 257.74 88.5313 257.74 88.242C257.74 87.9527 257.838 87.71 258.034 87.514C258.23 87.318 258.473 87.22 258.762 87.22C259.042 87.22 259.28 87.318 259.476 87.514C259.672 87.71 259.77 87.9527 259.77 88.242C259.77 88.5313 259.672 88.774 259.476 88.97C259.28 89.166 259.042 89.264 258.762 89.264ZM259.546 90.286V98H257.95V90.286H259.546ZM263.504 91.588V95.858C263.504 96.1473 263.569 96.3573 263.7 96.488C263.84 96.6093 264.073 96.67 264.4 96.67H265.38V98H264.12C263.401 98 262.85 97.832 262.468 97.496C262.085 97.16 261.894 96.614 261.894 95.858V91.588H260.984V90.286H261.894V88.368H263.504V90.286H265.38V91.588H263.504ZM273.795 90.286L269.063 101.626H267.411L268.979 97.874L265.941 90.286H267.719L269.889 96.166L272.143 90.286H273.795ZM278.104 94.108C278.104 93.3333 278.263 92.6473 278.58 92.05C278.907 91.4527 279.345 90.9907 279.896 90.664C280.456 90.328 281.077 90.16 281.758 90.16C282.262 90.16 282.757 90.272 283.242 90.496C283.737 90.7107 284.129 91 284.418 91.364V87.64H286.028V98H284.418V96.838C284.157 97.2113 283.793 97.5193 283.326 97.762C282.869 98.0047 282.341 98.126 281.744 98.126C281.072 98.126 280.456 97.958 279.896 97.622C279.345 97.2767 278.907 96.8007 278.58 96.194C278.263 95.578 278.104 94.8827 278.104 94.108ZM284.418 94.136C284.418 93.604 284.306 93.142 284.082 92.75C283.867 92.358 283.583 92.0593 283.228 91.854C282.873 91.6487 282.491 91.546 282.08 91.546C281.669 91.546 281.287 91.6487 280.932 91.854C280.577 92.05 280.288 92.344 280.064 92.736C279.849 93.1187 279.742 93.576 279.742 94.108C279.742 94.64 279.849 95.1067 280.064 95.508C280.288 95.9093 280.577 96.2173 280.932 96.432C281.296 96.6373 281.679 96.74 282.08 96.74C282.491 96.74 282.873 96.6373 283.228 96.432C283.583 96.2267 283.867 95.928 284.082 95.536C284.306 95.1347 284.418 94.668 284.418 94.136ZM287.592 94.108C287.592 93.3333 287.751 92.6473 288.068 92.05C288.395 91.4527 288.834 90.9907 289.384 90.664C289.944 90.328 290.56 90.16 291.232 90.16C291.839 90.16 292.366 90.2813 292.814 90.524C293.272 90.7573 293.636 91.0513 293.906 91.406V90.286H295.516V98H293.906V96.852C293.636 97.216 293.267 97.5193 292.8 97.762C292.334 98.0047 291.802 98.126 291.204 98.126C290.542 98.126 289.935 97.958 289.384 97.622C288.834 97.2767 288.395 96.8007 288.068 96.194C287.751 95.578 287.592 94.8827 287.592 94.108ZM293.906 94.136C293.906 93.604 293.794 93.142 293.57 92.75C293.356 92.358 293.071 92.0593 292.716 91.854C292.362 91.6487 291.979 91.546 291.568 91.546C291.158 91.546 290.775 91.6487 290.42 91.854C290.066 92.05 289.776 92.344 289.552 92.736C289.338 93.1187 289.23 93.576 289.23 94.108C289.23 94.64 289.338 95.1067 289.552 95.508C289.776 95.9093 290.066 96.2173 290.42 96.432C290.784 96.6373 291.167 96.74 291.568 96.74C291.979 96.74 292.362 96.6373 292.716 96.432C293.071 96.2267 293.356 95.928 293.57 95.536C293.794 95.1347 293.906 94.668 293.906 94.136ZM299.475 91.588V95.858C299.475 96.1473 299.54 96.3573 299.671 96.488C299.811 96.6093 300.044 96.67 300.371 96.67H301.351V98H300.091C299.372 98 298.821 97.832 298.439 97.496C298.056 97.16 297.865 96.614 297.865 95.858V91.588H296.955V90.286H297.865V88.368H299.475V90.286H301.351V91.588H299.475ZM302.289 94.108C302.289 93.3333 302.448 92.6473 302.765 92.05C303.092 91.4527 303.531 90.9907 304.081 90.664C304.641 90.328 305.257 90.16 305.929 90.16C306.536 90.16 307.063 90.2813 307.511 90.524C307.969 90.7573 308.333 91.0513 308.603 91.406V90.286H310.213V98H308.603V96.852C308.333 97.216 307.964 97.5193 307.497 97.762C307.031 98.0047 306.499 98.126 305.901 98.126C305.239 98.126 304.632 97.958 304.081 97.622C303.531 97.2767 303.092 96.8007 302.765 96.194C302.448 95.578 302.289 94.8827 302.289 94.108ZM308.603 94.136C308.603 93.604 308.491 93.142 308.267 92.75C308.053 92.358 307.768 92.0593 307.413 91.854C307.059 91.6487 306.676 91.546 306.265 91.546C305.855 91.546 305.472 91.6487 305.117 91.854C304.763 92.05 304.473 92.344 304.249 92.736C304.035 93.1187 303.927 93.576 303.927 94.108C303.927 94.64 304.035 95.1067 304.249 95.508C304.473 95.9093 304.763 96.2173 305.117 96.432C305.481 96.6373 305.864 96.74 306.265 96.74C306.676 96.74 307.059 96.6373 307.413 96.432C307.768 96.2267 308.053 95.928 308.267 95.536C308.491 95.1347 308.603 94.668 308.603 94.136ZM316.758 89.264C316.469 89.264 316.226 89.166 316.03 88.97C315.834 88.774 315.736 88.5313 315.736 88.242C315.736 87.9527 315.834 87.71 316.03 87.514C316.226 87.318 316.469 87.22 316.758 87.22C317.038 87.22 317.276 87.318 317.472 87.514C317.668 87.71 317.766 87.9527 317.766 88.242C317.766 88.5313 317.668 88.774 317.472 88.97C317.276 89.166 317.038 89.264 316.758 89.264ZM317.542 90.286V98H315.946V90.286H317.542ZM323.53 90.16C324.137 90.16 324.678 90.286 325.154 90.538C325.639 90.79 326.017 91.1633 326.288 91.658C326.559 92.1527 326.694 92.75 326.694 93.45V98H325.112V93.688C325.112 92.9973 324.939 92.47 324.594 92.106C324.249 91.7327 323.777 91.546 323.18 91.546C322.583 91.546 322.107 91.7327 321.752 92.106C321.407 92.47 321.234 92.9973 321.234 93.688V98H319.638V90.286H321.234V91.168C321.495 90.8507 321.827 90.6033 322.228 90.426C322.639 90.2487 323.073 90.16 323.53 90.16ZM42.396 120.126C41.668 120.126 41.01 119.963 40.422 119.636C39.834 119.3 39.372 118.833 39.036 118.236C38.7 117.629 38.532 116.929 38.532 116.136C38.532 115.352 38.7047 114.657 39.05 114.05C39.3953 113.443 39.8667 112.977 40.464 112.65C41.0613 112.323 41.7287 112.16 42.466 112.16C43.2033 112.16 43.8707 112.323 44.468 112.65C45.0653 112.977 45.5367 113.443 45.882 114.05C46.2273 114.657 46.4 115.352 46.4 116.136C46.4 116.92 46.2227 117.615 45.868 118.222C45.5133 118.829 45.028 119.3 44.412 119.636C43.8053 119.963 43.1333 120.126 42.396 120.126ZM42.396 118.74C42.8067 118.74 43.1893 118.642 43.544 118.446C43.908 118.25 44.202 117.956 44.426 117.564C44.65 117.172 44.762 116.696 44.762 116.136C44.762 115.576 44.6547 115.105 44.44 114.722C44.2253 114.33 43.9407 114.036 43.586 113.84C43.2313 113.644 42.8487 113.546 42.438 113.546C42.0273 113.546 41.6447 113.644 41.29 113.84C40.9447 114.036 40.6693 114.33 40.464 114.722C40.2587 115.105 40.156 115.576 40.156 116.136C40.156 116.967 40.366 117.611 40.786 118.068C41.2153 118.516 41.752 118.74 42.396 118.74ZM51.8697 112.16C52.4764 112.16 53.0177 112.286 53.4937 112.538C53.9791 112.79 54.3571 113.163 54.6277 113.658C54.8984 114.153 55.0337 114.75 55.0337 115.45V120H53.4517V115.688C53.4517 114.997 53.2791 114.47 52.9337 114.106C52.5884 113.733 52.1171 113.546 51.5197 113.546C50.9224 113.546 50.4464 113.733 50.0917 114.106C49.7464 114.47 49.5737 114.997 49.5737 115.688V120H47.9777V112.286H49.5737V113.168C49.8351 112.851 50.1664 112.603 50.5677 112.426C50.9784 112.249 51.4124 112.16 51.8697 112.16ZM64.1395 115.954C64.1395 116.243 64.1209 116.505 64.0835 116.738H58.1895C58.2362 117.354 58.4649 117.849 58.8755 118.222C59.2862 118.595 59.7902 118.782 60.3875 118.782C61.2462 118.782 61.8529 118.423 62.2075 117.704H63.9295C63.6962 118.413 63.2715 118.997 62.6555 119.454C62.0489 119.902 61.2929 120.126 60.3875 120.126C59.6502 120.126 58.9875 119.963 58.3995 119.636C57.8209 119.3 57.3635 118.833 57.0275 118.236C56.7009 117.629 56.5375 116.929 56.5375 116.136C56.5375 115.343 56.6962 114.647 57.0135 114.05C57.3402 113.443 57.7929 112.977 58.3715 112.65C58.9595 112.323 59.6315 112.16 60.3875 112.16C61.1155 112.16 61.7642 112.319 62.3335 112.636C62.9029 112.953 63.3462 113.401 63.6635 113.98C63.9809 114.549 64.1395 115.207 64.1395 115.954ZM62.4735 115.45C62.4642 114.862 62.2542 114.391 61.8435 114.036C61.4329 113.681 60.9242 113.504 60.3175 113.504C59.7669 113.504 59.2955 113.681 58.9035 114.036C58.5115 114.381 58.2782 114.853 58.2035 115.45H62.4735ZM70.9429 113.42C71.2135 113.065 71.5822 112.767 72.0489 112.524C72.5155 112.281 73.0429 112.16 73.6309 112.16C74.3029 112.16 74.9142 112.328 75.4649 112.664C76.0249 112.991 76.4635 113.453 76.7809 114.05C77.0982 114.647 77.2569 115.333 77.2569 116.108C77.2569 116.883 77.0982 117.578 76.7809 118.194C76.4635 118.801 76.0249 119.277 75.4649 119.622C74.9142 119.958 74.3029 120.126 73.6309 120.126C73.0429 120.126 72.5202 120.009 72.0629 119.776C71.6055 119.533 71.2322 119.235 70.9429 118.88V123.668H69.3469V112.286H70.9429V113.42ZM75.6329 116.108C75.6329 115.576 75.5209 115.119 75.2969 114.736C75.0822 114.344 74.7929 114.05 74.4289 113.854C74.0742 113.649 73.6915 113.546 73.2809 113.546C72.8795 113.546 72.4969 113.649 72.1329 113.854C71.7782 114.059 71.4889 114.358 71.2649 114.75C71.0502 115.142 70.9429 115.604 70.9429 116.136C70.9429 116.668 71.0502 117.135 71.2649 117.536C71.4889 117.928 71.7782 118.227 72.1329 118.432C72.4969 118.637 72.8795 118.74 73.2809 118.74C73.6915 118.74 74.0742 118.637 74.4289 118.432C74.7929 118.217 75.0822 117.909 75.2969 117.508C75.5209 117.107 75.6329 116.64 75.6329 116.108ZM80.4312 109.64V120H78.8352V109.64H80.4312ZM81.9946 116.108C81.9946 115.333 82.1532 114.647 82.4706 114.05C82.7972 113.453 83.2359 112.991 83.7866 112.664C84.3466 112.328 84.9626 112.16 85.6346 112.16C86.2412 112.16 86.7686 112.281 87.2166 112.524C87.6739 112.757 88.0379 113.051 88.3086 113.406V112.286H89.9186V120H88.3086V118.852C88.0379 119.216 87.6692 119.519 87.2026 119.762C86.7359 120.005 86.2039 120.126 85.6066 120.126C84.9439 120.126 84.3372 119.958 83.7866 119.622C83.2359 119.277 82.7972 118.801 82.4706 118.194C82.1532 117.578 81.9946 116.883 81.9946 116.108ZM88.3086 116.136C88.3086 115.604 88.1966 115.142 87.9726 114.75C87.7579 114.358 87.4732 114.059 87.1186 113.854C86.7639 113.649 86.3812 113.546 85.9706 113.546C85.5599 113.546 85.1772 113.649 84.8226 113.854C84.4679 114.05 84.1786 114.344 83.9546 114.736C83.7399 115.119 83.6326 115.576 83.6326 116.108C83.6326 116.64 83.7399 117.107 83.9546 117.508C84.1786 117.909 84.4679 118.217 84.8226 118.432C85.1866 118.637 85.5692 118.74 85.9706 118.74C86.3812 118.74 86.7639 118.637 87.1186 118.432C87.4732 118.227 87.7579 117.928 87.9726 117.536C88.1966 117.135 88.3086 116.668 88.3086 116.136ZM91.4828 116.136C91.4828 115.343 91.6415 114.647 91.9588 114.05C92.2855 113.443 92.7335 112.977 93.3028 112.65C93.8722 112.323 94.5255 112.16 95.2628 112.16C96.1962 112.16 96.9662 112.384 97.5728 112.832C98.1888 113.271 98.6042 113.901 98.8188 114.722H97.0968C96.9568 114.339 96.7328 114.041 96.4248 113.826C96.1168 113.611 95.7295 113.504 95.2628 113.504C94.6095 113.504 94.0868 113.737 93.6948 114.204C93.3122 114.661 93.1208 115.305 93.1208 116.136C93.1208 116.967 93.3122 117.615 93.6948 118.082C94.0868 118.549 94.6095 118.782 95.2628 118.782C96.1868 118.782 96.7982 118.376 97.0968 117.564H98.8188C98.5948 118.348 98.1748 118.973 97.5588 119.44C96.9428 119.897 96.1775 120.126 95.2628 120.126C94.5255 120.126 93.8722 119.963 93.3028 119.636C92.7335 119.3 92.2855 118.833 91.9588 118.236C91.6415 117.629 91.4828 116.929 91.4828 116.136ZM107.479 115.954C107.479 116.243 107.461 116.505 107.423 116.738H101.529C101.576 117.354 101.805 117.849 102.215 118.222C102.626 118.595 103.13 118.782 103.727 118.782C104.586 118.782 105.193 118.423 105.547 117.704H107.269C107.036 118.413 106.611 118.997 105.995 119.454C105.389 119.902 104.633 120.126 103.727 120.126C102.99 120.126 102.327 119.963 101.739 119.636C101.161 119.3 100.703 118.833 100.367 118.236C100.041 117.629 99.8774 116.929 99.8774 116.136C99.8774 115.343 100.036 114.647 100.353 114.05C100.68 113.443 101.133 112.977 101.711 112.65C102.299 112.323 102.971 112.16 103.727 112.16C104.455 112.16 105.104 112.319 105.673 112.636C106.243 112.953 106.686 113.401 107.003 113.98C107.321 114.549 107.479 115.207 107.479 115.954ZM105.813 115.45C105.804 114.862 105.594 114.391 105.183 114.036C104.773 113.681 104.264 113.504 103.657 113.504C103.107 113.504 102.635 113.681 102.243 114.036C101.851 114.381 101.618 114.853 101.543 115.45H105.813ZM123.047 112.286L120.653 120H118.973L117.419 114.302L115.865 120H114.185L111.777 112.286H113.401L115.011 118.488L116.649 112.286H118.315L119.883 118.46L121.479 112.286H123.047ZM125.051 111.264C124.762 111.264 124.519 111.166 124.323 110.97C124.127 110.774 124.029 110.531 124.029 110.242C124.029 109.953 124.127 109.71 124.323 109.514C124.519 109.318 124.762 109.22 125.051 109.22C125.331 109.22 125.569 109.318 125.765 109.514C125.961 109.71 126.059 109.953 126.059 110.242C126.059 110.531 125.961 110.774 125.765 110.97C125.569 111.166 125.331 111.264 125.051 111.264ZM125.835 112.286V120H124.239V112.286H125.835ZM129.793 113.588V117.858C129.793 118.147 129.858 118.357 129.989 118.488C130.129 118.609 130.362 118.67 130.689 118.67H131.669V120H130.409C129.69 120 129.14 119.832 128.757 119.496C128.374 119.16 128.183 118.614 128.183 117.858V113.588H127.273V112.286H128.183V110.368H129.793V112.286H131.669V113.588H129.793ZM137.13 112.16C137.718 112.16 138.241 112.286 138.698 112.538C139.165 112.79 139.529 113.163 139.79 113.658C140.061 114.153 140.196 114.75 140.196 115.45V120H138.614V115.688C138.614 114.997 138.441 114.47 138.096 114.106C137.751 113.733 137.279 113.546 136.682 113.546C136.085 113.546 135.609 113.733 135.254 114.106C134.909 114.47 134.736 114.997 134.736 115.688V120H133.14V109.64H134.736V113.182C135.007 112.855 135.347 112.603 135.758 112.426C136.178 112.249 136.635 112.16 137.13 112.16ZM152.672 113.168C152.672 113.663 152.556 114.129 152.322 114.568C152.089 115.007 151.716 115.366 151.202 115.646C150.689 115.917 150.031 116.052 149.228 116.052H147.464V120H145.868V110.27H149.228C149.975 110.27 150.605 110.401 151.118 110.662C151.641 110.914 152.028 111.259 152.28 111.698C152.542 112.137 152.672 112.627 152.672 113.168ZM149.228 114.75C149.835 114.75 150.288 114.615 150.586 114.344C150.885 114.064 151.034 113.672 151.034 113.168C151.034 112.104 150.432 111.572 149.228 111.572H147.464V114.75H149.228ZM157.541 120.126C156.813 120.126 156.155 119.963 155.567 119.636C154.979 119.3 154.517 118.833 154.181 118.236C153.845 117.629 153.677 116.929 153.677 116.136C153.677 115.352 153.849 114.657 154.195 114.05C154.54 113.443 155.011 112.977 155.609 112.65C156.206 112.323 156.873 112.16 157.611 112.16C158.348 112.16 159.015 112.323 159.613 112.65C160.21 112.977 160.681 113.443 161.027 114.05C161.372 114.657 161.545 115.352 161.545 116.136C161.545 116.92 161.367 117.615 161.013 118.222C160.658 118.829 160.173 119.3 159.557 119.636C158.95 119.963 158.278 120.126 157.541 120.126ZM157.541 118.74C157.951 118.74 158.334 118.642 158.689 118.446C159.053 118.25 159.347 117.956 159.571 117.564C159.795 117.172 159.907 116.696 159.907 116.136C159.907 115.576 159.799 115.105 159.585 114.722C159.37 114.33 159.085 114.036 158.731 113.84C158.376 113.644 157.993 113.546 157.583 113.546C157.172 113.546 156.789 113.644 156.435 113.84C156.089 114.036 155.814 114.33 155.609 114.722C155.403 115.105 155.301 115.576 155.301 116.136C155.301 116.967 155.511 117.611 155.931 118.068C156.36 118.516 156.897 118.74 157.541 118.74ZM164.718 113.406C164.952 113.014 165.26 112.711 165.642 112.496C166.034 112.272 166.496 112.16 167.028 112.16V113.812H166.622C165.997 113.812 165.521 113.971 165.194 114.288C164.877 114.605 164.718 115.156 164.718 115.94V120H163.122V112.286H164.718V113.406ZM170.357 113.588V117.858C170.357 118.147 170.423 118.357 170.553 118.488C170.693 118.609 170.927 118.67 171.253 118.67H172.233V120H170.973C170.255 120 169.704 119.832 169.321 119.496C168.939 119.16 168.747 118.614 168.747 117.858V113.588H167.837V112.286H168.747V110.368H170.357V112.286H172.233V113.588H170.357ZM173.172 116.108C173.172 115.333 173.331 114.647 173.648 114.05C173.975 113.453 174.414 112.991 174.964 112.664C175.524 112.328 176.14 112.16 176.812 112.16C177.419 112.16 177.946 112.281 178.394 112.524C178.852 112.757 179.216 113.051 179.486 113.406V112.286H181.096V120H179.486V118.852C179.216 119.216 178.847 119.519 178.38 119.762C177.914 120.005 177.382 120.126 176.784 120.126C176.122 120.126 175.515 119.958 174.964 119.622C174.414 119.277 173.975 118.801 173.648 118.194C173.331 117.578 173.172 116.883 173.172 116.108ZM179.486 116.136C179.486 115.604 179.374 115.142 179.15 114.75C178.936 114.358 178.651 114.059 178.296 113.854C177.942 113.649 177.559 113.546 177.148 113.546C176.738 113.546 176.355 113.649 176 113.854C175.646 114.05 175.356 114.344 175.132 114.736C174.918 115.119 174.81 115.576 174.81 116.108C174.81 116.64 174.918 117.107 175.132 117.508C175.356 117.909 175.646 118.217 176 118.432C176.364 118.637 176.747 118.74 177.148 118.74C177.559 118.74 177.942 118.637 178.296 118.432C178.651 118.227 178.936 117.928 179.15 117.536C179.374 117.135 179.486 116.668 179.486 116.136ZM184.789 113.434C185.059 113.061 185.428 112.757 185.895 112.524C186.371 112.281 186.898 112.16 187.477 112.16C188.158 112.16 188.774 112.323 189.325 112.65C189.875 112.977 190.309 113.443 190.627 114.05C190.944 114.647 191.103 115.333 191.103 116.108C191.103 116.883 190.944 117.578 190.627 118.194C190.309 118.801 189.871 119.277 189.311 119.622C188.76 119.958 188.149 120.126 187.477 120.126C186.879 120.126 186.347 120.009 185.881 119.776C185.423 119.543 185.059 119.244 184.789 118.88V120H183.193V109.64H184.789V113.434ZM189.479 116.108C189.479 115.576 189.367 115.119 189.143 114.736C188.928 114.344 188.639 114.05 188.275 113.854C187.92 113.649 187.537 113.546 187.127 113.546C186.725 113.546 186.343 113.649 185.979 113.854C185.624 114.059 185.335 114.358 185.111 114.75C184.896 115.142 184.789 115.604 184.789 116.136C184.789 116.668 184.896 117.135 185.111 117.536C185.335 117.928 185.624 118.227 185.979 118.432C186.343 118.637 186.725 118.74 187.127 118.74C187.537 118.74 187.92 118.637 188.275 118.432C188.639 118.217 188.928 117.909 189.143 117.508C189.367 117.107 189.479 116.64 189.479 116.108ZM194.277 109.64V120H192.681V109.64H194.277ZM197.016 120.098C196.727 120.098 196.484 120 196.288 119.804C196.092 119.608 195.994 119.365 195.994 119.076C195.994 118.787 196.092 118.544 196.288 118.348C196.484 118.152 196.727 118.054 197.016 118.054C197.296 118.054 197.534 118.152 197.73 118.348C197.926 118.544 198.024 118.787 198.024 119.076C198.024 119.365 197.926 119.608 197.73 119.804C197.534 120 197.296 120.098 197.016 120.098Z" fill="black"/>
<rect x="38" y="145" width="302" height="40" rx="20" fill="url(#paint1_linear_428_956)"/>
<path d="M135.85 169.091C135.218 169.091 134.646 168.983 134.134 168.766C133.632 168.549 133.233 168.237 132.938 167.83C132.644 167.423 132.492 166.942 132.483 166.387H134.433C134.459 166.76 134.589 167.054 134.823 167.271C135.066 167.488 135.395 167.596 135.811 167.596C136.236 167.596 136.57 167.496 136.812 167.297C137.055 167.089 137.176 166.82 137.176 166.491C137.176 166.222 137.094 166.001 136.929 165.828C136.765 165.655 136.557 165.52 136.305 165.425C136.063 165.321 135.725 165.208 135.291 165.087C134.702 164.914 134.221 164.745 133.848 164.58C133.484 164.407 133.168 164.151 132.899 163.813C132.639 163.466 132.509 163.007 132.509 162.435C132.509 161.898 132.644 161.43 132.912 161.031C133.181 160.632 133.558 160.329 134.043 160.121C134.529 159.904 135.083 159.796 135.707 159.796C136.643 159.796 137.402 160.026 137.982 160.485C138.572 160.936 138.897 161.568 138.957 162.383H136.955C136.938 162.071 136.804 161.815 136.552 161.616C136.31 161.408 135.985 161.304 135.577 161.304C135.222 161.304 134.936 161.395 134.719 161.577C134.511 161.759 134.407 162.023 134.407 162.37C134.407 162.613 134.485 162.816 134.641 162.981C134.806 163.137 135.005 163.267 135.239 163.371C135.482 163.466 135.82 163.579 136.253 163.709C136.843 163.882 137.324 164.056 137.696 164.229C138.069 164.402 138.39 164.662 138.658 165.009C138.927 165.356 139.061 165.811 139.061 166.374C139.061 166.859 138.936 167.31 138.684 167.726C138.433 168.142 138.065 168.476 137.579 168.727C137.094 168.97 136.518 169.091 135.85 169.091ZM147.529 161.798L143.07 172.406H141.133L142.693 168.818L139.807 161.798H141.848L143.707 166.829L145.592 161.798H147.529ZM152.501 161.694C153.359 161.694 154.053 161.967 154.581 162.513C155.11 163.05 155.374 163.804 155.374 164.775V169H153.554V165.022C153.554 164.45 153.411 164.012 153.125 163.709C152.839 163.397 152.449 163.241 151.955 163.241C151.453 163.241 151.054 163.397 150.759 163.709C150.473 164.012 150.33 164.45 150.33 165.022V169H148.51V161.798H150.33V162.695C150.573 162.383 150.881 162.14 151.253 161.967C151.635 161.785 152.051 161.694 152.501 161.694ZM156.637 165.399C156.637 164.654 156.789 164.004 157.092 163.449C157.395 162.886 157.816 162.452 158.353 162.149C158.89 161.837 159.506 161.681 160.199 161.681C161.092 161.681 161.828 161.906 162.409 162.357C162.998 162.799 163.393 163.423 163.592 164.229H161.629C161.525 163.917 161.347 163.674 161.096 163.501C160.853 163.319 160.55 163.228 160.186 163.228C159.666 163.228 159.254 163.419 158.951 163.8C158.648 164.173 158.496 164.706 158.496 165.399C158.496 166.084 158.648 166.617 158.951 166.998C159.254 167.371 159.666 167.557 160.186 167.557C160.923 167.557 161.404 167.228 161.629 166.569H163.592C163.393 167.349 162.998 167.969 162.409 168.428C161.82 168.887 161.083 169.117 160.199 169.117C159.506 169.117 158.89 168.965 158.353 168.662C157.816 168.35 157.395 167.917 157.092 167.362C156.789 166.799 156.637 166.144 156.637 165.399ZM178.007 161.798L175.901 169H173.938L172.625 163.969L171.312 169H169.336L167.217 161.798H169.063L170.337 167.284L171.715 161.798H173.639L174.991 167.271L176.265 161.798H178.007ZM179.915 160.94C179.594 160.94 179.325 160.84 179.109 160.641C178.901 160.433 178.797 160.177 178.797 159.874C178.797 159.571 178.901 159.319 179.109 159.12C179.325 158.912 179.594 158.808 179.915 158.808C180.235 158.808 180.5 158.912 180.708 159.12C180.924 159.319 181.033 159.571 181.033 159.874C181.033 160.177 180.924 160.433 180.708 160.641C180.5 160.84 180.235 160.94 179.915 160.94ZM180.812 161.798V169H178.992V161.798H180.812ZM184.729 163.293V166.777C184.729 167.02 184.785 167.197 184.898 167.31C185.019 167.414 185.219 167.466 185.496 167.466H186.341V169H185.197C183.663 169 182.896 168.255 182.896 166.764V163.293H182.038V161.798H182.896V160.017H184.729V161.798H186.341V163.293H184.729ZM191.706 161.694C192.252 161.694 192.737 161.815 193.162 162.058C193.587 162.292 193.916 162.643 194.15 163.111C194.393 163.57 194.514 164.125 194.514 164.775V169H192.694V165.022C192.694 164.45 192.551 164.012 192.265 163.709C191.979 163.397 191.589 163.241 191.095 163.241C190.592 163.241 190.194 163.397 189.899 163.709C189.613 164.012 189.47 164.45 189.47 165.022V169H187.65V159.38H189.47V162.695C189.704 162.383 190.016 162.14 190.406 161.967C190.796 161.785 191.229 161.694 191.706 161.694ZM205.959 162.734C205.959 163.219 205.842 163.674 205.608 164.099C205.383 164.524 205.023 164.866 204.529 165.126C204.044 165.386 203.429 165.516 202.683 165.516H201.162V169H199.342V159.926H202.683C203.385 159.926 203.983 160.047 204.477 160.29C204.971 160.533 205.34 160.866 205.582 161.291C205.834 161.716 205.959 162.197 205.959 162.734ZM202.605 164.047C203.108 164.047 203.481 163.934 203.723 163.709C203.966 163.475 204.087 163.15 204.087 162.734C204.087 161.85 203.593 161.408 202.605 161.408H201.162V164.047H202.605ZM210.449 169.117C209.756 169.117 209.132 168.965 208.577 168.662C208.023 168.35 207.585 167.912 207.264 167.349C206.952 166.786 206.796 166.136 206.796 165.399C206.796 164.662 206.957 164.012 207.277 163.449C207.607 162.886 208.053 162.452 208.616 162.149C209.18 161.837 209.808 161.681 210.501 161.681C211.195 161.681 211.823 161.837 212.386 162.149C212.95 162.452 213.392 162.886 213.712 163.449C214.042 164.012 214.206 164.662 214.206 165.399C214.206 166.136 214.037 166.786 213.699 167.349C213.37 167.912 212.919 168.35 212.347 168.662C211.784 168.965 211.151 169.117 210.449 169.117ZM210.449 167.531C210.779 167.531 211.086 167.453 211.372 167.297C211.667 167.132 211.901 166.89 212.074 166.569C212.248 166.248 212.334 165.858 212.334 165.399C212.334 164.714 212.152 164.19 211.788 163.826C211.433 163.453 210.995 163.267 210.475 163.267C209.955 163.267 209.518 163.453 209.162 163.826C208.816 164.19 208.642 164.714 208.642 165.399C208.642 166.084 208.811 166.612 209.149 166.985C209.496 167.349 209.929 167.531 210.449 167.531ZM217.362 162.916C217.596 162.535 217.899 162.236 218.272 162.019C218.653 161.802 219.086 161.694 219.572 161.694V163.605H219.091C218.519 163.605 218.085 163.739 217.791 164.008C217.505 164.277 217.362 164.745 217.362 165.412V169H215.542V161.798H217.362V162.916ZM222.916 163.293V166.777C222.916 167.02 222.973 167.197 223.085 167.31C223.207 167.414 223.406 167.466 223.683 167.466H224.528V169H223.384C221.85 169 221.083 168.255 221.083 166.764V163.293H220.225V161.798H221.083V160.017H222.916V161.798H224.528V163.293H222.916ZM225.369 165.373C225.369 164.645 225.512 163.999 225.798 163.436C226.093 162.873 226.487 162.439 226.981 162.136C227.484 161.833 228.043 161.681 228.658 161.681C229.196 161.681 229.664 161.789 230.062 162.006C230.47 162.223 230.795 162.496 231.037 162.825V161.798H232.87V169H231.037V167.947C230.803 168.285 230.478 168.567 230.062 168.792C229.655 169.009 229.183 169.117 228.645 169.117C228.039 169.117 227.484 168.961 226.981 168.649C226.487 168.337 226.093 167.899 225.798 167.336C225.512 166.764 225.369 166.11 225.369 165.373ZM231.037 165.399C231.037 164.957 230.951 164.58 230.777 164.268C230.604 163.947 230.37 163.705 230.075 163.54C229.781 163.367 229.464 163.28 229.126 163.28C228.788 163.28 228.476 163.362 228.19 163.527C227.904 163.692 227.67 163.934 227.488 164.255C227.315 164.567 227.228 164.94 227.228 165.373C227.228 165.806 227.315 166.188 227.488 166.517C227.67 166.838 227.904 167.085 228.19 167.258C228.485 167.431 228.797 167.518 229.126 167.518C229.464 167.518 229.781 167.436 230.075 167.271C230.37 167.098 230.604 166.855 230.777 166.543C230.951 166.222 231.037 165.841 231.037 165.399ZM236.468 162.851C236.702 162.504 237.023 162.223 237.43 162.006C237.846 161.789 238.318 161.681 238.847 161.681C239.462 161.681 240.017 161.833 240.511 162.136C241.014 162.439 241.408 162.873 241.694 163.436C241.989 163.991 242.136 164.636 242.136 165.373C242.136 166.11 241.989 166.764 241.694 167.336C241.408 167.899 241.014 168.337 240.511 168.649C240.017 168.961 239.462 169.117 238.847 169.117C238.31 169.117 237.837 169.013 237.43 168.805C237.031 168.588 236.711 168.311 236.468 167.973V169H234.648V159.38H236.468V162.851ZM240.277 165.373C240.277 164.94 240.186 164.567 240.004 164.255C239.831 163.934 239.597 163.692 239.302 163.527C239.016 163.362 238.704 163.28 238.366 163.28C238.037 163.28 237.725 163.367 237.43 163.54C237.144 163.705 236.91 163.947 236.728 164.268C236.555 164.589 236.468 164.966 236.468 165.399C236.468 165.832 236.555 166.209 236.728 166.53C236.91 166.851 237.144 167.098 237.43 167.271C237.725 167.436 238.037 167.518 238.366 167.518C238.704 167.518 239.016 167.431 239.302 167.258C239.597 167.085 239.831 166.838 240.004 166.517C240.186 166.196 240.277 165.815 240.277 165.373ZM245.279 159.38V169H243.459V159.38H245.279Z" fill="white"/>
<rect x="243" y="34" width="97" height="28" rx="14" fill="#F3F3F4"/>
<path d="M269.989 43.94L268.259 51H266.519L265.199 45.88L263.869 51H262.139L260.409 43.94H261.939L263.019 49.41L264.419 43.94H265.969L267.379 49.41L268.459 43.94H269.989ZM274.253 45.38C274.893 45.38 275.403 45.59 275.783 46.01C276.163 46.43 276.353 47.02 276.353 47.78V51H274.953V47.94C274.953 47.5 274.84 47.16 274.613 46.92C274.387 46.6733 274.077 46.55 273.683 46.55C273.283 46.55 272.963 46.68 272.723 46.94C272.483 47.2 272.363 47.5733 272.363 48.06V51H270.953V43.6H272.363V46.57C272.51 46.1967 272.75 45.9067 273.083 45.7C273.423 45.4867 273.813 45.38 274.253 45.38ZM279.764 45.39C280.231 45.39 280.631 45.5 280.964 45.72C281.297 45.94 281.534 46.2367 281.674 46.61V45.46H283.074V51H281.674V49.84C281.534 50.2133 281.297 50.5133 280.964 50.74C280.631 50.96 280.231 51.07 279.764 51.07C279.297 51.07 278.877 50.9567 278.504 50.73C278.131 50.5033 277.837 50.1767 277.624 49.75C277.417 49.3167 277.314 48.81 277.314 48.23C277.314 47.65 277.417 47.1467 277.624 46.72C277.837 46.2867 278.131 45.9567 278.504 45.73C278.877 45.5033 279.297 45.39 279.764 45.39ZM280.204 46.62C279.764 46.62 279.411 46.7633 279.144 47.05C278.877 47.3367 278.744 47.73 278.744 48.23C278.744 48.73 278.877 49.1233 279.144 49.41C279.411 49.69 279.764 49.83 280.204 49.83C280.631 49.83 280.981 49.6867 281.254 49.4C281.534 49.1067 281.674 48.7167 281.674 48.23C281.674 47.7367 281.534 47.3467 281.254 47.06C280.981 46.7667 280.631 46.62 280.204 46.62ZM287.312 49.79V51H286.572C285.952 51 285.475 50.85 285.142 50.55C284.815 50.25 284.652 49.75 284.652 49.05V46.65H283.882V45.46H284.652V44.09H286.062V45.46H287.302V46.65H286.062V49.07C286.062 49.3367 286.115 49.5233 286.222 49.63C286.329 49.7367 286.509 49.79 286.762 49.79H287.312ZM289.277 42.78C289.383 43.1333 289.437 43.4933 289.437 43.86C289.437 44.2933 289.33 44.6333 289.117 44.88C288.91 45.12 288.6 45.24 288.187 45.24V44.68C288.36 44.68 288.487 44.63 288.567 44.53C288.653 44.43 288.697 44.2733 288.697 44.06V43.87H288.117V42.78H289.277ZM292.404 45.39C293.078 45.39 293.618 45.56 294.024 45.9C294.431 46.24 294.684 46.6933 294.784 47.26H293.464C293.411 46.9933 293.291 46.78 293.104 46.62C292.918 46.46 292.674 46.38 292.374 46.38C292.134 46.38 291.948 46.4367 291.814 46.55C291.681 46.6633 291.614 46.8167 291.614 47.01C291.614 47.1633 291.668 47.2867 291.774 47.38C291.881 47.4733 292.014 47.5467 292.174 47.6C292.334 47.6533 292.564 47.7167 292.864 47.79C293.284 47.8833 293.624 47.9833 293.884 48.09C294.151 48.19 294.378 48.3533 294.564 48.58C294.758 48.8 294.854 49.1 294.854 49.48C294.854 49.9533 294.668 50.3367 294.294 50.63C293.928 50.9233 293.431 51.07 292.804 51.07C292.084 51.07 291.508 50.91 291.074 50.59C290.641 50.2633 290.378 49.8 290.284 49.2H291.634C291.668 49.4733 291.788 49.69 291.994 49.85C292.201 50.0033 292.471 50.08 292.804 50.08C293.044 50.08 293.228 50.0233 293.354 49.91C293.481 49.79 293.544 49.6367 293.544 49.45C293.544 49.29 293.488 49.16 293.374 49.06C293.268 48.96 293.131 48.8833 292.964 48.83C292.804 48.7767 292.574 48.7133 292.274 48.64C291.861 48.5467 291.524 48.4533 291.264 48.36C291.011 48.26 290.791 48.1033 290.604 47.89C290.424 47.6767 290.334 47.3833 290.334 47.01C290.334 46.53 290.518 46.14 290.884 45.84C291.251 45.54 291.758 45.39 292.404 45.39ZM302.882 43.94V45.06H300.932V51H299.522V45.06H297.582V43.94H302.882ZM306.959 45.38C307.599 45.38 308.109 45.59 308.489 46.01C308.869 46.43 309.059 47.02 309.059 47.78V51H307.659V47.94C307.659 47.5 307.545 47.16 307.319 46.92C307.092 46.6733 306.782 46.55 306.389 46.55C305.989 46.55 305.669 46.68 305.429 46.94C305.189 47.2 305.069 47.5733 305.069 48.06V51H303.659V43.6H305.069V46.57C305.215 46.1967 305.455 45.9067 305.789 45.7C306.129 45.4867 306.519 45.38 306.959 45.38ZM310.139 43.87C310.139 43.6433 310.219 43.46 310.379 43.32C310.539 43.1733 310.749 43.1 311.009 43.1C311.269 43.1 311.479 43.1733 311.639 43.32C311.799 43.46 311.879 43.6433 311.879 43.87C311.879 44.09 311.799 44.2733 311.639 44.42C311.479 44.56 311.269 44.63 311.009 44.63C310.749 44.63 310.539 44.56 310.379 44.42C310.219 44.2733 310.139 44.09 310.139 43.87ZM311.709 45.46V51H310.299V45.46H311.709ZM314.895 45.39C315.568 45.39 316.108 45.56 316.515 45.9C316.921 46.24 317.175 46.6933 317.275 47.26H315.955C315.901 46.9933 315.781 46.78 315.595 46.62C315.408 46.46 315.165 46.38 314.865 46.38C314.625 46.38 314.438 46.4367 314.305 46.55C314.171 46.6633 314.105 46.8167 314.105 47.01C314.105 47.1633 314.158 47.2867 314.265 47.38C314.371 47.4733 314.505 47.5467 314.665 47.6C314.825 47.6533 315.055 47.7167 315.355 47.79C315.775 47.8833 316.115 47.9833 316.375 48.09C316.641 48.19 316.868 48.3533 317.055 48.58C317.248 48.8 317.345 49.1 317.345 49.48C317.345 49.9533 317.158 50.3367 316.785 50.63C316.418 50.9233 315.921 51.07 315.295 51.07C314.575 51.07 313.998 50.91 313.565 50.59C313.131 50.2633 312.868 49.8 312.775 49.2H314.125C314.158 49.4733 314.278 49.69 314.485 49.85C314.691 50.0033 314.961 50.08 315.295 50.08C315.535 50.08 315.718 50.0233 315.845 49.91C315.971 49.79 316.035 49.6367 316.035 49.45C316.035 49.29 315.978 49.16 315.865 49.06C315.758 48.96 315.621 48.8833 315.455 48.83C315.295 48.7767 315.065 48.7133 314.765 48.64C314.351 48.5467 314.015 48.4533 313.755 48.36C313.501 48.26 313.281 48.1033 313.095 47.89C312.915 47.6767 312.825 47.3833 312.825 47.01C312.825 46.53 313.008 46.14 313.375 45.84C313.741 45.54 314.248 45.39 314.895 45.39ZM320.375 43.52C321.055 43.52 321.602 43.7 322.015 44.06C322.428 44.42 322.635 44.93 322.635 45.59C322.635 46.2567 322.422 46.7667 321.995 47.12C321.575 47.4733 321.008 47.6567 320.295 47.67V48.68H318.965V46.75H319.535C320.075 46.75 320.495 46.67 320.795 46.51C321.095 46.3433 321.245 46.04 321.245 45.6C321.245 45.3067 321.162 45.08 320.995 44.92C320.828 44.7533 320.605 44.67 320.325 44.67C320.018 44.67 319.775 44.76 319.595 44.94C319.415 45.1133 319.325 45.34 319.325 45.62H317.995C317.982 45.22 318.068 44.8633 318.255 44.55C318.442 44.23 318.715 43.98 319.075 43.8C319.442 43.6133 319.875 43.52 320.375 43.52ZM320.405 49.53V51H318.885V49.53H320.405Z" fill="black"/>
<defs>
<filter id="filter0_d_428_956" x="0" y="0" width="378" height="228" filterUnits="userSpaceOnUse" color-interpolation-filters="sRGB">
<feFlood flood-opacity="0" result="BackgroundImageFix"/>
<feColorMatrix in="SourceAlpha" type="matrix" values="0 0 0 0 0 0 0 0 0 0 0 0 0 0 0 0 0 0 127 0" result="hardAlpha"/>
<feOffset dy="3"/>
<feGaussianBlur stdDeviation="7"/>
<feComposite in2="hardAlpha" operator="out"/>
<feColorMatrix type="matrix" values="0 0 0 0 0 0 0 0 0 0 0 0 0 0 0 0 0 0 0.11 0"/>
<feBlend mode="normal" in2="BackgroundImageFix" result="effect1_dropShadow_428_956"/>
<feBlend mode="normal" in="SourceGraphic" in2="effect1_dropShadow_428_956" result="shape"/>
</filter>
<linearGradient id="paint0_linear_428_956" x1="59.7028" y1="34" x2="33.6175" y2="53.101" gradientUnits="userSpaceOnUse">
<stop stop-color="#8600FA"/>
<stop offset="0.099" stop-color="#8A00F9"/>
<stop offset="0.522" stop-color="#C602E5"/>
<stop offset="0.911" stop-color="#F02376"/>
<stop offset="1" stop-color="#F4266B"/>
</linearGradient>
<linearGradient id="paint1_linear_428_956" x1="340" y1="145" x2="38.7663" y2="190.116" gradientUnits="userSpaceOnUse">
<stop stop-color="#8600FA"/>
<stop offset="0.5" stop-color="#C602E5"/>
<stop offset="1" stop-color="#F4266B"/>
</linearGradient>
<clipPath id="clip0_428_956">
<rect width="102" height="27.2673" fill="white" transform="translate(38 34)"/>
</clipPath>
</defs>
</svg>
